<svg width="55" height="55" viewBox="0 0 609 491" fill="none" xmlns="http://www.w3.org/2000/svg">
<path d="M445.971 135.217C221.921 -69.9006 5.26737 168.165 33.1557 285.696H516.656C503.156 -54.3041 188.656 -0.304086 159.656 8.19591C144.456 12.651 157.989 43.1959 164.156 53.6959C324.956 -11.5212 419.033 80.8697 445.971 135.217Z" fill="#EF4444"/>
<path d="M524.156 296.196H27.1556C-0.844381 311.796 -1.84438 323.029 1.15562 326.696L524.156 331.696C543.356 317.296 532.156 302.029 524.156 296.196Z" fill="#EF4444"/>
<path d="M530.656 342.196H368.656C408.256 483.796 544.822 498.196 608.156 487.696C567.756 461.296 539.656 379.696 530.656 342.196Z" fill="#EF4444"/>
</svg>
