<svg width="55" height="55" viewBox="0 0 332 488" fill="none" xmlns="http://www.w3.org/2000/svg">
<path fill-rule="evenodd" clip-rule="evenodd" d="M89.0026 83.2334V108.233C73.6693 112.567 40.9026 131.033 32.5026 170.233V473.233C32.6693 477.9 35.4026 487.333 45.0026 487.733C54.6026 488.133 136.669 487.9 176.503 487.733C181.003 487.733 190.103 484.833 190.503 473.233V170.233C190.503 153.733 171.003 114.733 134.503 108.233V80.2334L191.503 79.2334V90.7334L331.503 113.233V16.7334L191.503 37.2334V48.2334H134.503V29.2334H118.003C118.003 1.7334 62.5026 -19.7666 48.5026 29.2334C47.1693 37.2334 47.5026 54.7334 59.5026 60.7334C42.8359 69.4001 7.70256 93.0334 0.502584 118.233C-3.35455 131.733 16.0024 140.233 24.0026 131.733C33.3359 116.9 59.4027 86.4334 89.0026 83.2334ZM83.5024 19.7334C72.5024 19.7334 66.5547 32.7557 67.0024 37.2334C67.5024 42.2334 74.0024 51.7334 83.5024 51.7334C95.5024 51.7334 99.5024 41.2334 99.5024 37.2334C99.5024 32.2334 96.0024 19.7334 83.5024 19.7334Z" fill="#EF4444"/>
</svg>
