<svg width="750" height="749" viewBox="0 0 750 749" fill="none" xmlns="http://www.w3.org/2000/svg">
<rect width="750" height="748.337" fill="#EF4444"/>
<path d="M498.891 121.397L750 374.169V748.337H424.889L294.346 616.131V615.299L293.514 577.882L208.703 494.734L207.871 492.239H226.996L247.783 334.257V251.109L283.537 202.882L354.213 197.062L381.652 150.499L498.891 121.397Z" fill="#DC2626"/>
<path fill-rule="evenodd" clip-rule="evenodd" d="M350.887 139.69L498.06 118.902C503.88 130.543 483.093 134.701 429.878 144.678C431.818 152.993 432.539 170.787 419.9 175.443C488.082 209.534 491.408 212.86 493.071 223.67L399.113 183.758C401.608 190.687 404.102 205.71 394.124 210.366V223.67H402.439V231.153C427.384 231.153 453.16 262.749 453.16 279.379L454.823 544.623H460.643V611.142L457.317 614.468H294.346L290.188 611.142V544.623H296.84V279.379C296.84 262.749 325.942 231.153 347.561 231.153V223.67H355.044V212.029C354.213 210.92 352.716 208.37 353.381 207.04C354.047 205.71 353.659 205.931 353.381 206.208L334.257 207.04V203.714H303.492C283.537 207.04 252.439 225.333 257.761 275.222H260.255V293.514H271.064L283.537 484.756H287.694V494.734H208.703V484.756H212.86L226.164 293.514H236.142V275.222H239.468V245.288C239.468 231.984 256.929 194.235 296.84 186.253H334.257V182.927H353.381C353.659 181.818 354.712 179.601 356.707 179.601V167.129C354.767 166.851 350.721 165.798 350.055 163.803C349.39 161.807 350.333 146.896 350.887 139.69ZM411.585 170.455C407.594 171.785 402.162 167.129 399.945 164.634C403.271 151.33 416.851 148.004 423.226 148.004C430.71 163.803 416.574 168.792 411.585 170.455Z" fill="white"/>
<path fill-rule="evenodd" clip-rule="evenodd" d="M367.129 454.669C364.671 450.481 359.858 441.602 360.26 439.591L359.254 442.104L359.422 428.869L356.909 431.717C357.244 428.422 358.685 420.694 361.767 416.137C362.326 415.187 362.538 413.188 358.919 412.786H356.071C353.558 413.456 347.628 414.897 344.009 415.299C343.429 415.363 342.912 415.428 342.446 415.486C339.28 415.881 338.472 415.982 336.135 413.791C333.99 411.781 332.226 408.374 331.611 406.922L336.47 403.739C336.917 403.181 337.475 402.064 336.135 402.064L332.617 400.891L349.537 394.19C349.817 393.743 350.375 392.749 350.375 392.347C350.375 391.945 351.38 391.956 351.883 392.012L358.752 378.442C359.589 376.655 362.974 372.612 369.809 370.735C370.077 370.735 378.856 366.826 383.212 364.872L398.29 347.281C400.356 353.088 404.488 367.351 404.488 377.939C408.621 382.407 417.288 393.017 418.896 399.718C416.942 398.378 412.496 395.932 410.352 396.87C412.809 401.45 417.12 413.389 414.708 424.513C414.317 423.117 413.334 419.956 412.53 418.482C410.296 426.3 402.009 444.316 386.73 453.832C392.202 451.989 405.661 445.958 415.713 436.576C425.765 427.194 428.501 415.913 428.613 411.446C429.116 402.734 430.456 384.339 431.796 380.452C432.39 378.731 433.13 375.707 433.958 372.325C435.468 366.159 437.269 358.805 439 355.992C434.253 357.5 424.123 362.66 421.577 371.238C421.856 363.755 421.309 347.08 416.886 340.244C415.974 338.836 415.172 337.514 414.4 336.241C410.487 329.792 407.336 324.599 394.604 315.784H394.101C396.67 318.577 401.037 326.473 397.954 335.721L396.279 338.401C395.051 329.746 387.936 308.547 369.306 293C374.835 306.235 376.845 315.784 372.154 323.994C367.352 328.908 357.579 341.551 356.909 352.809C354.843 348.677 352.62 336.927 360.26 322.988C346.969 327.512 321.693 345.27 326.921 380.117C325.692 377.157 320.588 369.73 310 363.699C316.199 374.421 323.972 392.716 323.57 409.603C324.408 415.969 329.769 431.047 342.501 441.267C351.144 448.035 357.65 450.402 361.901 451.949C364.489 452.89 366.241 453.528 367.129 454.669ZM328.596 384.976C323.905 375.996 319.884 372.913 317.036 371.74C324.553 388.625 325.062 399.276 325.416 406.688C325.607 410.676 325.753 413.726 326.921 416.304C331.378 436.14 354.02 448.47 364.783 452.156C361.936 446.936 361.628 446.047 360.474 442.721C360.406 442.525 360.335 442.319 360.26 442.104C360.098 441.64 359.413 445.585 359.116 447.298L359.087 447.465C357.345 444.064 358.138 434.879 358.752 430.712C357.97 432.052 356.34 434.8 356.071 435.068C354.731 429.439 359.087 419.878 361.433 415.802C361.567 413.121 357.803 413.456 355.904 413.959C343.708 416.773 338.871 416.695 337.978 416.304C335.163 415.098 331.891 409.324 330.607 406.587C329.713 405.415 327.926 403.002 327.926 402.734C327.926 402.466 328.931 401.617 329.434 401.226L349.035 393.017C348.901 392.615 349.203 391.844 349.37 391.509C349.906 390.571 350.878 390.728 351.213 390.839V390.337C352.764 387.234 353.804 384.919 354.634 383.069C356.226 379.523 357.053 377.68 359.255 375.259C361.634 372.426 365.009 371.126 371.401 368.664C374.461 367.486 378.212 366.041 382.877 364.034L399.127 342.422C402.612 349.392 404.768 369.116 405.326 377.939C416.45 388.795 420.907 399.886 421.744 404.074C417.351 399.115 413.101 397.987 411.525 398.043C418.226 411.312 416.439 423.787 414.708 428.367C414.708 427.026 413.256 422.335 412.53 420.157C410.52 431.55 398.122 445.958 393.264 450.313C425.698 434.766 427.273 417.309 427.608 403.404C427.105 391.007 432.467 366.882 435.817 359.343C429.25 360.817 422.861 369.73 420.572 374.086C422.582 341.417 410.017 330.192 399.295 321.648C403.986 331.365 398.178 337.508 395.944 339.742C389.377 317.359 380.364 306.905 376.511 304.225C379.861 318.13 373.83 326.172 372.49 327.177C371.418 327.981 367.911 332.203 366.291 334.213C360.93 340.11 357.803 350.296 356.909 354.652H356.574C352.419 348.487 353.391 334.66 354.396 328.517C338.681 335.754 331.095 351.301 329.266 358.17C326.184 365.408 326.921 377.269 328.596 384.976Z" fill="#111827"/>
<path d="M359.087 447.465C357.345 444.064 358.138 434.879 358.752 430.712C357.97 432.052 356.34 434.8 356.071 435.068C354.731 429.439 359.087 419.878 361.433 415.802C361.567 413.121 357.803 413.456 355.904 413.959C343.708 416.773 338.871 416.695 337.978 416.304C335.163 415.098 331.891 409.324 330.607 406.587C329.713 405.415 327.926 403.002 327.926 402.734C327.926 402.466 328.931 401.617 329.434 401.226L349.035 393.017C348.901 392.615 349.203 391.844 349.37 391.509C349.906 390.571 350.878 390.728 351.213 390.839V390.337C352.764 387.234 353.804 384.919 354.634 383.069C356.226 379.523 357.053 377.68 359.255 375.259C361.634 372.426 365.009 371.126 371.401 368.664C374.461 367.486 378.212 366.041 382.877 364.034L399.127 342.422C402.612 349.392 404.768 369.116 405.326 377.939C416.45 388.795 420.907 399.886 421.744 404.074C417.351 399.115 413.101 397.987 411.525 398.043C418.226 411.312 416.439 423.787 414.708 428.367C414.708 427.026 413.256 422.335 412.53 420.157C410.52 431.55 398.122 445.958 393.264 450.313C425.698 434.766 427.273 417.309 427.608 403.404C427.105 391.007 432.467 366.882 435.817 359.343C429.25 360.817 422.861 369.73 420.572 374.086C422.582 341.417 410.017 330.192 399.295 321.648C403.986 331.365 398.178 337.508 395.944 339.742C389.377 317.359 380.364 306.905 376.511 304.225C379.861 318.13 373.83 326.172 372.49 327.177C371.418 327.981 367.911 332.203 366.291 334.213C360.93 340.11 357.803 350.296 356.909 354.652H356.574C352.419 348.487 353.391 334.66 354.396 328.517C338.681 335.754 331.095 351.301 329.266 358.17C326.184 365.408 326.921 377.269 328.596 384.976C323.905 375.996 319.884 372.913 317.036 371.74C324.553 388.625 325.062 399.276 325.416 406.688C325.607 410.676 325.753 413.726 326.921 416.304C331.378 436.14 354.02 448.47 364.783 452.156C361.936 446.936 361.628 446.047 360.474 442.721C360.406 442.525 360.335 442.319 360.26 442.104C360.098 441.64 359.413 445.585 359.116 447.298M359.087 447.465L359.116 447.298M359.087 447.465C359.096 447.412 359.106 447.357 359.116 447.298M367.129 454.669C364.671 450.481 359.858 441.602 360.26 439.591L359.254 442.104L359.422 428.869L356.909 431.717C357.244 428.422 358.685 420.694 361.767 416.137C362.326 415.187 362.538 413.188 358.919 412.786H356.071C353.558 413.456 347.628 414.897 344.009 415.299C343.429 415.363 342.912 415.428 342.446 415.486C339.28 415.881 338.472 415.982 336.135 413.791C333.99 411.781 332.226 408.374 331.611 406.922L336.47 403.739C336.917 403.181 337.475 402.064 336.135 402.064L332.617 400.891L349.537 394.19C349.817 393.743 350.375 392.749 350.375 392.347C350.375 391.945 351.38 391.956 351.883 392.012L358.752 378.442C359.589 376.655 362.974 372.612 369.809 370.735C370.077 370.735 378.856 366.826 383.212 364.872L398.29 347.281C400.356 353.088 404.488 367.351 404.488 377.939C408.621 382.407 417.288 393.017 418.896 399.718C416.942 398.378 412.496 395.932 410.352 396.87C412.809 401.45 417.12 413.389 414.708 424.513C414.317 423.117 413.334 419.956 412.53 418.482C410.296 426.3 402.009 444.316 386.73 453.832C392.202 451.989 405.661 445.958 415.713 436.576C425.765 427.194 428.501 415.913 428.613 411.446C429.116 402.734 430.456 384.339 431.796 380.452C432.39 378.731 433.13 375.707 433.958 372.325C435.468 366.159 437.269 358.805 439 355.992C434.253 357.5 424.123 362.66 421.577 371.238C421.856 363.755 421.309 347.08 416.886 340.244C415.974 338.836 415.172 337.514 414.4 336.241C410.487 329.792 407.336 324.599 394.604 315.784H394.101C396.67 318.577 401.037 326.473 397.954 335.721L396.279 338.401C395.051 329.746 387.936 308.547 369.306 293C374.835 306.235 376.845 315.784 372.154 323.994C367.352 328.908 357.579 341.551 356.909 352.809C354.843 348.677 352.62 336.927 360.26 322.988C346.969 327.512 321.693 345.27 326.921 380.117C325.692 377.157 320.588 369.73 310 363.699C316.199 374.421 323.972 392.716 323.57 409.603C324.408 415.969 329.769 431.047 342.501 441.267C351.144 448.035 357.65 450.402 361.901 451.949C364.489 452.89 366.241 453.528 367.129 454.669Z" stroke="#111827" stroke-width="0.25"/>
<path d="M317.036 371.74C319.884 372.913 323.905 375.996 328.596 384.976C326.921 377.269 326.184 365.408 329.266 358.17C331.095 351.301 338.681 335.754 354.396 328.517C353.391 334.66 352.419 348.487 356.574 354.652H356.909C357.803 350.296 360.93 340.11 366.291 334.213C367.911 332.203 371.418 327.981 372.49 327.177C373.83 326.172 379.861 318.13 376.511 304.225C380.364 306.905 389.377 317.359 395.944 339.742C398.178 337.508 403.986 331.365 399.295 321.648C410.017 330.192 422.582 341.417 420.572 374.086C422.861 369.73 429.25 360.817 435.817 359.343C432.467 366.882 427.105 391.007 427.608 403.404C427.273 417.309 425.698 434.766 393.264 450.313C398.122 445.958 410.52 431.55 412.53 420.157C413.256 422.335 414.708 427.026 414.708 428.367C416.439 423.787 418.226 411.312 411.525 398.043C413.101 397.987 417.351 399.115 421.744 404.074C420.907 399.886 416.45 388.795 405.326 377.939C404.768 369.116 402.612 349.392 399.127 342.422L382.877 364.034C378.212 366.041 374.461 367.486 371.401 368.664C365.009 371.126 361.634 372.426 359.255 375.259C357.053 377.68 356.226 379.523 354.634 383.069C353.804 384.919 352.764 387.234 351.213 390.337V390.839C350.878 390.728 349.906 390.571 349.37 391.509C349.203 391.844 348.901 392.615 349.035 393.017L329.434 401.226C328.931 401.617 327.926 402.466 327.926 402.734C327.926 403.002 329.713 405.415 330.607 406.587C331.891 409.324 335.163 415.098 337.978 416.304C338.871 416.695 343.708 416.773 355.904 413.959C357.803 413.456 361.567 413.121 361.433 415.802C359.087 419.878 354.731 429.439 356.071 435.068C356.34 434.8 357.97 432.052 358.752 430.712C358.138 434.879 357.345 444.064 359.087 447.465L359.116 447.298C359.413 445.585 360.098 441.64 360.26 442.104C360.335 442.319 360.406 442.525 360.474 442.721C361.628 446.047 361.936 446.936 364.783 452.156C354.02 448.47 331.378 436.14 326.921 416.304C325.753 413.726 325.607 410.676 325.416 406.688C325.062 399.276 324.553 388.625 317.036 371.74Z" fill="#DC2626"/>
<path d="M359.087 447.465C357.345 444.064 358.138 434.879 358.752 430.712C357.97 432.052 356.34 434.8 356.071 435.068C354.731 429.439 359.087 419.878 361.433 415.802C361.567 413.121 357.803 413.456 355.904 413.959C343.708 416.773 338.871 416.695 337.978 416.304C335.163 415.098 331.891 409.324 330.607 406.587C329.713 405.415 327.926 403.002 327.926 402.734C327.926 402.466 328.931 401.617 329.434 401.226L349.035 393.017C348.901 392.615 349.203 391.844 349.37 391.509C349.906 390.571 350.878 390.728 351.213 390.839V390.337C352.764 387.234 353.804 384.919 354.634 383.069C356.226 379.523 357.053 377.68 359.255 375.259C361.634 372.426 365.009 371.126 371.401 368.664C374.461 367.486 378.212 366.041 382.877 364.034L399.127 342.422C402.612 349.392 404.768 369.116 405.326 377.939C416.45 388.795 420.907 399.886 421.744 404.074C417.351 399.115 413.101 397.987 411.525 398.043C418.226 411.312 416.439 423.787 414.708 428.367C414.708 427.026 413.256 422.335 412.53 420.157C410.52 431.55 398.122 445.958 393.264 450.313C425.698 434.766 427.273 417.309 427.608 403.404C427.105 391.007 432.467 366.882 435.817 359.343C429.25 360.817 422.861 369.73 420.572 374.086C422.582 341.417 410.017 330.192 399.295 321.648C403.986 331.365 398.178 337.508 395.944 339.742C389.377 317.359 380.364 306.905 376.511 304.225C379.861 318.13 373.83 326.172 372.49 327.177C371.418 327.981 367.911 332.203 366.291 334.213C360.93 340.11 357.803 350.296 356.909 354.652H356.574C352.419 348.487 353.391 334.66 354.396 328.517C338.681 335.754 331.095 351.301 329.266 358.17C326.184 365.408 326.921 377.269 328.596 384.976C323.905 375.996 319.884 372.913 317.036 371.74C324.553 388.625 325.062 399.276 325.416 406.688C325.607 410.676 325.753 413.726 326.921 416.304C331.378 436.14 354.02 448.47 364.783 452.156C361.936 446.936 361.628 446.047 360.474 442.721C360.406 442.525 360.335 442.319 360.26 442.104C360.098 441.64 359.413 445.585 359.116 447.298M359.087 447.465L359.116 447.298M359.087 447.465C359.096 447.412 359.106 447.357 359.116 447.298M367.129 454.669C364.671 450.481 359.858 441.602 360.26 439.591L359.254 442.104L359.422 428.869L356.909 431.717C357.244 428.422 358.685 420.694 361.767 416.137C362.326 415.187 362.538 413.188 358.919 412.786H356.071C353.558 413.456 347.628 414.897 344.009 415.299C343.429 415.363 342.912 415.428 342.446 415.486C339.28 415.881 338.472 415.982 336.135 413.791C333.99 411.781 332.226 408.374 331.611 406.922L336.47 403.739C336.917 403.181 337.475 402.064 336.135 402.064L332.617 400.891L349.537 394.19C349.817 393.743 350.375 392.749 350.375 392.347C350.375 391.945 351.38 391.956 351.883 392.012L358.752 378.442C359.589 376.655 362.974 372.612 369.809 370.735C370.077 370.735 378.856 366.826 383.212 364.872L398.29 347.281C400.356 353.088 404.488 367.351 404.488 377.939C408.621 382.407 417.288 393.017 418.896 399.718C416.942 398.378 412.496 395.932 410.352 396.87C412.809 401.45 417.12 413.389 414.708 424.513C414.317 423.117 413.334 419.956 412.53 418.482C410.296 426.3 402.009 444.316 386.73 453.832C392.202 451.989 405.661 445.958 415.713 436.576C425.765 427.194 428.501 415.913 428.613 411.446C429.116 402.734 430.456 384.339 431.796 380.452C432.39 378.731 433.13 375.707 433.958 372.325C435.468 366.159 437.269 358.805 439 355.992C434.253 357.5 424.123 362.66 421.577 371.238C421.856 363.755 421.309 347.08 416.886 340.244C415.974 338.836 415.172 337.514 414.4 336.241C410.487 329.792 407.336 324.599 394.604 315.784H394.101C396.67 318.577 401.037 326.473 397.954 335.721L396.279 338.401C395.051 329.746 387.936 308.547 369.306 293C374.835 306.235 376.845 315.784 372.154 323.994C367.352 328.908 357.579 341.551 356.909 352.809C354.843 348.677 352.62 336.927 360.26 322.988C346.969 327.512 321.693 345.27 326.921 380.117C325.692 377.157 320.588 369.73 310 363.699C316.199 374.421 323.972 392.716 323.57 409.603C324.408 415.969 329.769 431.047 342.501 441.267C351.144 448.035 357.65 450.402 361.901 451.949C364.489 452.89 366.241 453.528 367.129 454.669Z" stroke="#111827" stroke-width="0.25"/>
<path d="M381.537 345.438L372.49 364.034L381.537 362.024L385.055 356.83L381.537 345.438Z" fill="white"/>
<path fill-rule="evenodd" clip-rule="evenodd" d="M371.987 364.369L381.704 343.427L385.557 356.662L381.704 362.191L371.987 364.369ZM384.72 356.662L381.704 346.611L372.657 363.866L381.704 361.353L384.72 356.662Z" fill="#111827" stroke="#111827"/>
<path d="M396.112 352.809C394.503 353.479 389.857 361.688 387.735 365.709C387.735 366.245 388.294 366.491 388.573 366.547C391.655 367.485 396.894 373.304 399.127 376.096C397.787 371.908 396.614 370.233 393.431 368.222C396.112 365.877 397.285 365.374 401.305 364.201C398.089 362.995 393.934 364.481 392.259 365.374C391.722 364.034 394.604 356.439 396.112 352.809Z" fill="#111827"/>
<path d="M354.899 391.007C355.301 391.543 356.295 391.9 356.742 392.012C354.061 392.816 353.614 391.23 353.726 390.337C354.005 390.337 354.698 390.236 355.234 389.834C355.77 389.432 355.904 389.89 355.904 390.169C355.502 390.437 355.066 390.839 354.899 391.007Z" fill="#111827"/>
<path d="M352.051 393.52H351.213C350.811 394.056 351.381 394.302 351.716 394.357C352.721 394.357 352.386 394.022 353.391 393.855C354.463 393.989 355.066 394.692 356.407 394.86C354.53 392.582 352.721 393.017 352.051 393.52Z" fill="#111827"/>
<path d="M387.4 413.791C385.658 411.111 382.765 410.776 381.537 410.943C385.892 412.17 386.227 413.959 387.735 415.467C390.081 412.283 390.751 410.608 389.578 407.425C392.761 407.09 394.437 408.43 396.447 411.446C395.944 404.409 394.269 399.718 390.751 395.195C393.699 400.556 394.772 403.907 394.772 407.592C392.225 405.716 389.02 406.029 387.735 406.42C390.014 409.636 388.461 412.674 387.4 413.791Z" fill="#111827"/>
<path d="M396.112 352.809C394.503 353.479 389.857 361.688 387.735 365.709C387.735 366.245 388.294 366.491 388.573 366.547C391.655 367.485 396.894 373.304 399.127 376.096C397.787 371.908 396.614 370.233 393.431 368.222C396.112 365.877 397.285 365.374 401.305 364.201C398.089 362.995 393.934 364.481 392.259 365.374C391.722 364.034 394.604 356.439 396.112 352.809Z" stroke="#111827" stroke-width="0.25"/>
<path d="M354.899 391.007C355.301 391.543 356.295 391.9 356.742 392.012C354.061 392.816 353.614 391.23 353.726 390.337C354.005 390.337 354.698 390.236 355.234 389.834C355.77 389.432 355.904 389.89 355.904 390.169C355.502 390.437 355.066 390.839 354.899 391.007Z" stroke="#111827" stroke-width="0.25"/>
<path d="M352.051 393.52H351.213C350.811 394.056 351.381 394.302 351.716 394.357C352.721 394.357 352.386 394.022 353.391 393.855C354.463 393.989 355.066 394.692 356.407 394.86C354.53 392.582 352.721 393.017 352.051 393.52Z" stroke="#111827" stroke-width="0.25"/>
<path d="M387.4 413.791C385.658 411.111 382.765 410.776 381.537 410.943C385.892 412.17 386.227 413.959 387.735 415.467C390.081 412.283 390.751 410.608 389.578 407.425C392.761 407.09 394.437 408.43 396.447 411.446C395.944 404.409 394.269 399.718 390.751 395.195C393.699 400.556 394.772 403.907 394.772 407.592C392.225 405.716 389.02 406.029 387.735 406.42C390.014 409.636 388.461 412.674 387.4 413.791Z" stroke="#111827" stroke-width="0.25"/>
<path d="M361.768 393.52C359.623 394.19 357.747 392.961 357.077 392.179C359.925 391.342 360.427 390.002 362.438 389.331C364.716 388.661 365.621 389.164 365.621 390.504C365.23 391.23 363.912 392.85 361.768 393.52Z" fill="#DC2626"/>
</svg>
