<svg width="912" height="1057" viewBox="0 0 912 1057" fill="none" xmlns="http://www.w3.org/2000/svg">
<path d="M500.059 986.712C479.681 1019.22 432.318 1019.22 411.94 986.711L111 506.618C89.2913 471.986 114.186 427 155.06 427L756.94 427C797.814 427 822.709 471.986 801 506.618L500.059 986.712Z" fill="black"/>
<ellipse cx="454" cy="369.5" rx="361" ry="368.5" fill="white"/>
<path fillRule="evenodd" clipRule="evenodd" d="M287.499 602L313.999 616.5C315.499 616.833 318.299 616.5 317.499 612.5C316.166 611 313.599 607.8 313.999 607C314.399 606.2 314.499 604 314.499 603L322.999 588L333.499 594L332.999 625C335.166 627.667 342.099 633.9 352.499 637.5C354.499 637 356.899 634.1 350.499 626.5V598.5C356.166 599.333 369.199 598 375.999 586C377.832 582.5 379.799 572.8 372.999 562C366.199 551.2 341.832 538.167 330.499 533C328.999 531.833 325.699 530.1 324.499 532.5C323.299 534.9 325.999 539.167 327.499 541L297.499 595.5C296.166 596.167 292.499 597.3 288.499 596.5C287.499 596.667 285.899 598 287.499 602ZM342.999 587L328.499 579.5L343.999 551C353.599 554.2 357.999 562 358.999 565.5C363.399 585.1 350.166 588 342.999 587Z" fill="black"/>
<path fillRule="evenodd" clipRule="evenodd" d="M403.999 590C409.166 589.833 421.5 592.4 429.5 604C432.5 609.167 436.5 622.8 428.5 636C425.5 640.833 416.399 650.5 403.999 650.5C396.5 650.667 380.3 647.3 375.5 632.5C374.5 626 374 610.9 380 602.5C387.5 592 398.5 589.419 403.999 590ZM403.999 597.5C397.199 597.9 394.166 604.667 393.499 608C392.299 617.2 392.333 628.167 392.499 632.5C393.166 635.833 396.199 642.5 402.999 642.5C409.799 642.5 413.166 635.833 413.999 632.5V607C413.499 603.667 410.799 597.1 403.999 597.5Z" fill="black"/>
<path d="M477.499 612.5C475.099 602.5 467.832 602.667 464.499 604C457.299 607.6 457.166 618.5 457.999 623.5C459.499 633.5 464.499 638.5 467.499 641C470.499 643.5 479.999 643 487.999 638.5C494.399 634.9 494.666 638.333 493.999 640.5C491.199 648.9 481.832 653.667 477.499 655C465.999 657 442.699 654.6 441.499 629C440.299 603.4 456.332 596 464.499 595.5H472.999C480.199 595.5 485.666 598.833 487.499 600.5C490.999 604.333 496.099 613.1 488.499 617.5C480.899 621.9 477.999 616 477.499 612.5Z" fill="black"/>
<path d="M506.499 565.5C499.999 563.5 488.499 575 487.999 576C486.799 576 487.499 578.333 487.999 579.5L494.999 581C501.332 600.5 513.899 639.9 513.499 641.5C512.999 643.5 510.999 644.5 509.499 647C508.299 649 510.665 650.833 511.999 651.5C519.832 649.333 536.199 644.6 538.999 643C541.799 641.4 539.165 638.333 537.499 637C531.099 638.2 528.832 632.833 528.499 630L521.999 606C523.499 603.167 527.799 597.2 532.999 596C538.199 594.8 542.832 604.167 544.499 609C546.332 615.333 549.799 628.6 548.999 631C548.199 633.4 546.999 635 546.499 635.5C545.699 638.3 548.499 639.333 549.999 639.5L574.999 631C576.199 629.8 574.499 627.167 573.499 626C566.299 625.6 564.499 621.167 564.499 619C562.499 607 557.332 595 554.999 590.5C554.165 588.333 550.199 583.4 540.999 581C531.799 578.6 522.499 592 518.999 599C517.165 593.667 512.999 581.1 510.999 573.5C508.999 565.9 507.165 565 506.499 565.5Z" fill="black"/>
<path d="M580.039 545.256L647.275 576.699C649.187 577.593 649.421 580.218 647.698 581.436L587.673 623.867C585.949 625.085 583.553 623.989 583.348 621.889L576.137 548.015C575.93 545.894 578.109 544.354 580.039 545.256Z" fill="#FFF500" stroke="black" stroke-width="2.5"/>
<path d="M599.169 605.683L611.47 608.553L627.904 598.739L629.762 592.101L628.281 583.376L609.699 568.95L599.702 570.672L598.688 581.156L598.29 588.541L596.851 595.773L593.533 601.665L595.83 603.597L599.169 605.683Z" fill="white"/>
<path fillRule="evenodd" clipRule="evenodd" d="M619.153 609.351C617.507 608.648 614.142 607.071 613.846 606.385L614.058 607.353L611.337 603.383L611.148 604.784C610.563 603.731 609.393 601.116 609.402 599.083C609.378 598.677 609.025 598.036 607.809 598.715L606.919 599.343C606.274 600.096 604.722 601.831 603.675 602.749C603.507 602.896 603.359 603.029 603.226 603.149C602.319 603.964 602.087 604.172 600.898 604.036C599.806 603.912 598.541 603.288 598.044 602.992L598.896 600.975C598.919 600.711 598.859 600.256 598.44 600.552L597.095 600.979L600.98 595.257C600.973 595.063 600.939 594.644 600.855 594.525C600.771 594.405 601.087 594.187 601.256 594.093L600.56 588.546C600.447 587.83 600.658 585.883 602.401 583.818C602.485 583.759 604.41 580.662 605.362 579.121L606.389 570.57C608.252 571.84 612.532 575.167 614.751 578.314C616.979 578.73 621.912 579.973 623.819 581.609C622.928 581.642 621.025 581.895 620.552 582.647C622.279 583.466 626.129 586.063 627.706 589.901C627.292 589.572 626.322 588.85 625.762 588.589C626.702 591.404 627.887 598.585 625.105 604.781C626.429 603.027 629.372 598.268 630.549 593.264C631.725 588.26 630.216 584.304 629.315 582.952C627.646 580.253 624.21 574.491 623.814 573.04C623.639 572.398 623.237 571.336 622.787 570.149C621.967 567.984 620.989 565.401 620.94 564.184C619.772 565.678 617.687 569.445 618.689 572.555C617.208 570.27 613.542 565.435 610.727 564.379C610.147 564.162 609.619 563.946 609.111 563.738C606.536 562.684 604.463 561.835 598.636 562.023L598.479 562.134C599.867 562.397 602.887 563.781 603.861 567.209L603.899 568.374C601.701 566.073 595.035 561.342 585.953 560.829C590.455 563.543 593.085 565.938 593.339 569.411C592.867 571.93 592.462 577.842 594.612 581.335C593.1 580.563 589.943 577.561 589.41 571.735C586.203 576.009 582.024 586.858 590.96 596.061C589.956 595.452 586.804 594.371 582.23 594.912C586.415 596.732 592.679 600.455 596.092 605.562C597.688 607.269 602.524 610.568 608.646 610.797C612.766 610.903 615.296 610.173 616.949 609.695C617.955 609.404 618.636 609.208 619.153 609.351ZM592.502 597.135C589.154 595.501 587.251 595.472 586.115 595.751C592.003 599.111 594.394 602.164 596.059 604.289C596.954 605.432 597.639 606.306 598.544 606.814C604.094 611.726 613.756 610.399 617.893 609.121C615.909 608.198 615.627 608.002 614.569 607.268C614.506 607.224 614.441 607.179 614.373 607.131C614.225 607.029 614.837 608.352 615.104 608.927L615.13 608.983C613.872 608.356 612.195 605.452 611.514 604.079C611.55 604.649 611.616 605.825 611.589 605.964C609.99 604.587 609.348 600.785 609.227 599.057C608.707 598.231 607.601 599.16 607.113 599.728C603.89 603.253 602.362 604.296 602.001 604.377C600.868 604.639 598.635 603.644 597.66 603.114C597.135 602.963 596.071 602.64 596.014 602.56C595.958 602.481 596.095 602.007 596.17 601.78L600.577 595.019C600.451 594.929 600.383 594.634 600.366 594.497C600.336 594.1 600.673 593.933 600.801 593.892L600.696 593.743C600.531 592.478 600.37 591.562 600.242 590.829C599.997 589.424 599.869 588.694 600.05 587.489C600.2 586.123 600.983 584.993 602.465 582.852C603.174 581.827 604.044 580.571 605.082 578.946L605.632 568.941C608.182 570.244 612.99 575.63 615.013 578.129C620.766 578.903 624.483 581.216 625.623 582.276C623.21 581.771 621.645 582.373 621.164 582.737C626.04 585.202 628.095 589.303 628.514 591.046C628.233 590.648 626.796 589.574 626.113 589.087C627.872 592.915 627.016 599.93 626.41 602.295C633.291 590.525 630.125 584.99 627.315 580.784C624.56 577.211 621.18 568.86 620.648 565.881C618.904 567.767 618.774 571.824 618.971 573.623C612.754 563.472 606.473 562.906 601.331 562.731C604.834 564.584 604.306 567.69 604.076 568.847C597.332 563.643 592.324 562.524 590.557 562.577C594.519 565.97 594.319 569.689 594.111 570.283C593.944 570.759 593.732 572.786 593.647 573.741C593.207 576.675 594.364 580.391 594.998 581.883L594.893 581.957C592.303 581.041 589.709 576.717 588.735 574.67C585.34 580.286 586.226 586.578 587.094 589.022C587.647 591.853 590.363 595.215 592.502 597.135Z" fill="black"/>
<path d="M615.13 608.983C613.872 608.356 612.195 605.452 611.514 604.079C611.55 604.649 611.616 605.825 611.589 605.964C609.99 604.587 609.348 600.785 609.227 599.057C608.707 598.231 607.601 599.16 607.113 599.728C603.89 603.253 602.362 604.296 602.001 604.377C600.868 604.639 598.635 603.644 597.66 603.114C597.135 602.963 596.071 602.64 596.014 602.56C595.958 602.481 596.095 602.007 596.17 601.78L600.577 595.019C600.451 594.929 600.383 594.634 600.366 594.497C600.336 594.1 600.673 593.933 600.801 593.892L600.696 593.743C600.531 592.478 600.37 591.562 600.242 590.829C599.997 589.424 599.869 588.694 600.05 587.489C600.2 586.123 600.983 584.993 602.465 582.852C603.174 581.827 604.044 580.571 605.082 578.946L605.632 568.941C608.182 570.244 612.99 575.63 615.013 578.129C620.766 578.903 624.483 581.216 625.623 582.276C623.21 581.771 621.645 582.373 621.164 582.737C626.04 585.202 628.095 589.303 628.514 591.046C628.233 590.648 626.796 589.574 626.113 589.087C627.872 592.915 627.016 599.93 626.41 602.295C633.291 590.525 630.125 584.99 627.315 580.784C624.56 577.211 621.18 568.86 620.648 565.881C618.904 567.767 618.774 571.824 618.971 573.623C612.754 563.472 606.473 562.906 601.331 562.731C604.834 564.584 604.306 567.69 604.076 568.847C597.332 563.643 592.324 562.524 590.557 562.577C594.519 565.97 594.319 569.689 594.111 570.283C593.944 570.759 593.732 572.786 593.647 573.741C593.207 576.675 594.364 580.391 594.998 581.883L594.893 581.957C592.303 581.041 589.709 576.717 588.735 574.67C585.34 580.286 586.226 586.578 587.094 589.022C587.647 591.853 590.363 595.215 592.502 597.135C589.154 595.501 587.251 595.472 586.115 595.751C592.003 599.111 594.394 602.164 596.059 604.289C596.954 605.432 597.639 606.306 598.544 606.814C604.094 611.726 613.756 610.399 617.893 609.121C615.909 608.198 615.627 608.002 614.569 607.268C614.506 607.224 614.441 607.179 614.373 607.131C614.225 607.029 614.837 608.352 615.104 608.927M615.13 608.983L615.104 608.927M615.13 608.983C615.121 608.965 615.113 608.947 615.104 608.927M619.153 609.351C617.507 608.648 614.142 607.071 613.846 606.385L614.058 607.353L611.337 603.383L611.148 604.784C610.563 603.731 609.393 601.116 609.402 599.083C609.378 598.677 609.025 598.036 607.809 598.715L606.919 599.343C606.274 600.096 604.722 601.831 603.675 602.749C603.507 602.896 603.359 603.029 603.226 603.149C602.319 603.964 602.087 604.172 600.898 604.036C599.806 603.912 598.541 603.288 598.044 602.992L598.896 600.975C598.919 600.711 598.859 600.256 598.44 600.552L597.095 600.979L600.98 595.257C600.973 595.063 600.939 594.644 600.855 594.525C600.771 594.405 601.087 594.187 601.256 594.093L600.56 588.546C600.447 587.83 600.658 585.883 602.401 583.818C602.485 583.759 604.41 580.662 605.362 579.121L606.389 570.57C608.252 571.84 612.532 575.167 614.751 578.314C616.979 578.73 621.912 579.973 623.819 581.609C622.928 581.642 621.025 581.895 620.552 582.647C622.279 583.466 626.129 586.063 627.706 589.901C627.292 589.572 626.322 588.85 625.762 588.589C626.702 591.404 627.887 598.585 625.105 604.781C626.429 603.027 629.372 598.268 630.549 593.264C631.725 588.26 630.216 584.304 629.315 582.952C627.646 580.253 624.21 574.491 623.814 573.04C623.639 572.398 623.237 571.336 622.787 570.149C621.967 567.984 620.989 565.401 620.94 564.184C619.772 565.678 617.687 569.445 618.689 572.555C617.208 570.27 613.542 565.435 610.727 564.379C610.147 564.162 609.619 563.946 609.111 563.738C606.536 562.684 604.463 561.835 598.636 562.023L598.479 562.134C599.867 562.397 602.887 563.781 603.861 567.209L603.899 568.374C601.701 566.073 595.035 561.342 585.953 560.829C590.455 563.543 593.085 565.938 593.339 569.411C592.867 571.93 592.462 577.842 594.612 581.335C593.1 580.563 589.943 577.561 589.41 571.735C586.203 576.009 582.024 586.858 590.96 596.061C589.956 595.452 586.804 594.371 582.23 594.912C586.415 596.732 592.679 600.455 596.092 605.562C597.688 607.269 602.524 610.568 608.646 610.797C612.766 610.903 615.296 610.173 616.949 609.695C617.955 609.404 618.636 609.208 619.153 609.351Z" stroke="black" stroke-width="0.25"/>
<path d="M586.115 595.751C587.251 595.472 589.154 595.501 592.502 597.135C590.363 595.215 587.647 591.853 587.094 589.022C586.226 586.578 585.34 580.286 588.735 574.67C589.709 576.717 592.303 581.041 594.893 581.957L594.998 581.883C594.364 580.391 593.207 576.675 593.647 573.741C593.732 572.786 593.944 570.759 594.111 570.283C594.319 569.689 594.519 565.97 590.557 562.577C592.324 562.524 597.332 563.643 604.076 568.847C604.306 567.69 604.834 564.584 601.331 562.731C606.473 562.906 612.754 563.472 618.971 573.623C618.774 571.824 618.904 567.767 620.648 565.881C621.18 568.86 624.56 577.211 627.315 580.784C630.125 584.99 633.291 590.525 626.41 602.295C627.016 599.93 627.872 592.915 626.113 589.087C626.796 589.574 628.233 590.648 628.514 591.046C628.095 589.303 626.04 585.202 621.164 582.737C621.645 582.373 623.21 581.771 625.623 582.276C624.483 581.216 620.766 578.903 615.013 578.129C612.99 575.63 608.182 570.244 605.632 568.941L605.082 578.946C604.044 580.571 603.174 581.827 602.465 582.852C600.983 584.993 600.2 586.123 600.05 587.489C599.869 588.694 599.997 589.424 600.242 590.829C600.37 591.562 600.531 592.478 600.696 593.743L600.801 593.892C600.673 593.933 600.336 594.1 600.366 594.497C600.383 594.634 600.451 594.929 600.577 595.019L596.17 601.78C596.095 602.007 595.958 602.481 596.014 602.56C596.071 602.64 597.135 602.963 597.66 603.114C598.635 603.644 600.868 604.639 602.001 604.377C602.362 604.296 603.89 603.253 607.113 599.728C607.601 599.16 608.707 598.231 609.227 599.057C609.348 600.785 609.99 604.587 611.589 605.964C611.616 605.825 611.55 604.649 611.514 604.079C612.195 605.452 613.872 608.356 615.13 608.983L615.104 608.927C614.837 608.352 614.225 607.029 614.373 607.131C614.441 607.179 614.506 607.224 614.569 607.268C615.627 608.002 615.909 608.198 617.893 609.121C613.756 610.399 604.094 611.726 598.544 606.814C597.639 606.306 596.954 605.432 596.059 604.289C594.394 602.164 592.003 599.111 586.115 595.751Z" fill="#BF1520"/>
<path d="M615.13 608.983C613.872 608.356 612.195 605.452 611.514 604.079C611.55 604.649 611.616 605.825 611.589 605.964C609.99 604.587 609.348 600.785 609.227 599.057C608.707 598.231 607.601 599.16 607.113 599.728C603.89 603.253 602.362 604.296 602.001 604.377C600.868 604.639 598.635 603.644 597.66 603.114C597.135 602.963 596.071 602.64 596.014 602.56C595.958 602.481 596.095 602.007 596.17 601.78L600.577 595.019C600.451 594.929 600.383 594.634 600.366 594.497C600.336 594.1 600.673 593.933 600.801 593.892L600.696 593.743C600.531 592.478 600.37 591.562 600.242 590.829C599.997 589.424 599.869 588.694 600.05 587.489C600.2 586.123 600.983 584.993 602.465 582.852C603.174 581.827 604.044 580.571 605.082 578.946L605.632 568.941C608.182 570.244 612.99 575.63 615.013 578.129C620.766 578.903 624.483 581.216 625.623 582.276C623.21 581.771 621.645 582.373 621.164 582.737C626.04 585.202 628.095 589.303 628.514 591.046C628.233 590.648 626.796 589.574 626.113 589.087C627.872 592.915 627.016 599.93 626.41 602.295C633.291 590.525 630.125 584.99 627.315 580.784C624.56 577.211 621.18 568.86 620.648 565.881C618.904 567.767 618.774 571.824 618.971 573.623C612.754 563.472 606.473 562.906 601.331 562.731C604.834 564.584 604.306 567.69 604.076 568.847C597.332 563.643 592.324 562.524 590.557 562.577C594.519 565.97 594.319 569.689 594.111 570.283C593.944 570.759 593.732 572.786 593.647 573.741C593.207 576.675 594.364 580.391 594.998 581.883L594.893 581.957C592.303 581.041 589.709 576.717 588.735 574.67C585.34 580.286 586.226 586.578 587.094 589.022C587.647 591.853 590.363 595.215 592.502 597.135C589.154 595.501 587.251 595.472 586.115 595.751C592.003 599.111 594.394 602.164 596.059 604.289C596.954 605.432 597.639 606.306 598.544 606.814C604.094 611.726 613.756 610.399 617.893 609.121C615.909 608.198 615.627 608.002 614.569 607.268C614.506 607.224 614.441 607.179 614.373 607.131C614.225 607.029 614.837 608.352 615.104 608.927M615.13 608.983L615.104 608.927M615.13 608.983C615.121 608.965 615.113 608.947 615.104 608.927M619.153 609.351C617.507 608.648 614.142 607.071 613.846 606.385L614.058 607.353L611.337 603.383L611.148 604.784C610.563 603.731 609.393 601.116 609.402 599.083C609.378 598.677 609.025 598.036 607.809 598.715L606.919 599.343C606.274 600.096 604.722 601.831 603.675 602.749C603.507 602.896 603.359 603.029 603.226 603.149C602.319 603.964 602.087 604.172 600.898 604.036C599.806 603.912 598.541 603.288 598.044 602.992L598.896 600.975C598.919 600.711 598.859 600.256 598.44 600.552L597.095 600.979L600.98 595.257C600.973 595.063 600.939 594.644 600.855 594.525C600.771 594.405 601.087 594.187 601.256 594.093L600.56 588.546C600.447 587.83 600.658 585.883 602.401 583.818C602.485 583.759 604.41 580.662 605.362 579.121L606.389 570.57C608.252 571.84 612.532 575.167 614.751 578.314C616.979 578.73 621.912 579.973 623.819 581.609C622.928 581.642 621.025 581.895 620.552 582.647C622.279 583.466 626.129 586.063 627.706 589.901C627.292 589.572 626.322 588.85 625.762 588.589C626.702 591.404 627.887 598.585 625.105 604.781C626.429 603.027 629.372 598.268 630.549 593.264C631.725 588.26 630.216 584.304 629.315 582.952C627.646 580.253 624.21 574.491 623.814 573.04C623.639 572.398 623.237 571.336 622.787 570.149C621.967 567.984 620.989 565.401 620.94 564.184C619.772 565.678 617.687 569.445 618.689 572.555C617.208 570.27 613.542 565.435 610.727 564.379C610.147 564.162 609.619 563.946 609.111 563.738C606.536 562.684 604.463 561.835 598.636 562.023L598.479 562.134C599.867 562.397 602.887 563.781 603.861 567.209L603.899 568.374C601.701 566.073 595.035 561.342 585.953 560.829C590.455 563.543 593.085 565.938 593.339 569.411C592.867 571.93 592.462 577.842 594.612 581.335C593.1 580.563 589.943 577.561 589.41 571.735C586.203 576.009 582.024 586.858 590.96 596.061C589.956 595.452 586.804 594.371 582.23 594.912C586.415 596.732 592.679 600.455 596.092 605.562C597.688 607.269 602.524 610.568 608.646 610.797C612.766 610.903 615.296 610.173 616.949 609.695C617.955 609.404 618.636 609.208 619.153 609.351Z" stroke="black" stroke-width="0.25"/>
<path d="M600.765 573.716L601.835 581.236L604.241 578.644L604.253 576.325L600.765 573.716Z" fill="white"/>
<path fillRule="evenodd" clipRule="evenodd" d="M601.748 581.446L600.397 573.081L604.375 576.165L604.329 578.657L601.748 581.446ZM604.113 576.349L601.064 574.027L601.852 581.149L604.154 578.408L604.113 576.349Z" stroke="black" stroke-width="0.35"/>
<path d="M606.868 572.692C606.505 573.246 606.773 576.71 606.952 578.373C607.065 578.532 607.291 578.482 607.39 578.437C608.55 578.036 611.407 578.61 612.69 578.948C611.394 577.999 610.676 577.759 609.26 577.864C609.606 576.576 609.867 576.168 610.878 574.933C609.62 575.284 608.633 576.641 608.296 577.276C607.848 576.996 607.157 574.104 606.868 572.692Z" fill="black"/>
<path d="M601.989 593.129C602.227 593.2 602.613 593.087 602.776 593.021C602.107 593.851 601.635 593.478 601.482 593.188C601.57 593.127 601.765 592.944 601.848 592.707C601.932 592.469 602.07 592.575 602.128 592.658C602.059 592.827 602.007 593.042 601.989 593.129Z" fill="black"/>
<path d="M601.626 594.503L601.364 594.688C601.351 594.936 601.58 594.884 601.697 594.826C602.011 594.605 601.836 594.579 602.115 594.308C602.478 594.111 602.814 594.187 603.268 593.941C602.204 593.678 601.73 594.206 601.626 594.503Z" fill="black"/>
<path d="M616.924 592.734C615.818 592.322 614.843 592.86 614.494 593.181C616.113 592.585 616.593 593.043 617.38 593.158C617.446 591.695 617.305 591.05 616.271 590.362C617.196 589.561 618 589.59 619.261 590.043C617.629 588.063 616.122 587.038 614.074 586.47C616.12 587.413 617.157 588.172 617.929 589.267C616.74 589.271 615.804 590.071 615.484 590.47C616.87 590.924 617.022 592.169 616.924 592.734Z" fill="black"/>
<path d="M606.868 572.692C606.505 573.246 606.773 576.71 606.952 578.373C607.065 578.532 607.291 578.482 607.39 578.437C608.55 578.036 611.407 578.61 612.69 578.948C611.394 577.999 610.676 577.759 609.26 577.864C609.606 576.576 609.867 576.168 610.878 574.933C609.62 575.284 608.633 576.641 608.296 577.276C607.848 576.996 607.157 574.104 606.868 572.692Z" stroke="black" stroke-width="0.25"/>
<path d="M601.989 593.129C602.227 593.2 602.613 593.087 602.776 593.021C602.107 593.851 601.635 593.478 601.482 593.188C601.57 593.127 601.765 592.944 601.848 592.707C601.932 592.469 602.07 592.575 602.128 592.658C602.059 592.827 602.007 593.042 601.989 593.129Z" stroke="black" stroke-width="0.25"/>
<path d="M601.626 594.503L601.364 594.688C601.351 594.936 601.58 594.884 601.697 594.826C602.011 594.605 601.836 594.579 602.115 594.308C602.478 594.111 602.814 594.187 603.268 593.941C602.204 593.678 601.73 594.206 601.626 594.503Z" stroke="black" stroke-width="0.25"/>
<path d="M616.924 592.734C615.818 592.322 614.843 592.86 614.494 593.181C616.113 592.585 616.593 593.043 617.38 593.158C617.446 591.695 617.305 591.05 616.271 590.362C617.196 589.561 618 589.59 619.261 590.043C617.629 588.063 616.122 587.038 614.074 586.47C616.12 587.413 617.157 588.172 617.929 589.267C616.74 589.271 615.804 590.071 615.484 590.47C616.87 590.924 617.022 592.169 616.924 592.734Z" stroke="black" stroke-width="0.25"/>
<path d="M604.662 592.362C604.132 593.034 603.288 593.082 602.915 592.998C603.629 592.121 603.506 591.612 603.994 590.97C604.565 590.268 604.954 590.218 605.234 590.616C605.264 590.918 605.192 591.69 604.662 592.362Z" fill="#BF1520"/>
<path fillRule="evenodd" clipRule="evenodd" d="M432 567C424.666 554.5 410.3 528 411.5 522L408.499 529.5L408.999 490L401.499 498.5C402.499 488.667 406.799 465.6 415.999 452C417.666 449.167 418.299 443.2 407.499 442H398.999C391.499 444 373.799 448.3 362.999 449.5C361.267 449.692 359.725 449.885 358.335 450.058C348.887 451.237 346.473 451.538 339.499 445C333.099 439 327.832 428.833 325.999 424.5L340.499 415C341.832 413.333 343.499 410 339.499 410L328.999 406.5L379.499 386.5C380.332 385.167 381.999 382.2 381.999 381C381.999 379.8 384.999 379.833 386.499 380L406.999 339.5C409.499 334.167 419.599 322.1 439.999 316.5C440.799 316.5 466.999 304.833 479.999 299L524.999 246.5C531.166 263.833 543.499 306.4 543.499 338C555.832 351.333 581.699 383 586.499 403C580.666 399 567.399 391.7 560.999 394.5C568.332 408.167 581.199 443.8 573.999 477C572.832 472.833 569.899 463.4 567.499 459C560.832 482.333 536.099 536.1 490.499 564.5C506.832 559 546.999 541 576.999 513C606.999 485 615.166 451.333 615.499 438C616.999 412 620.999 357.1 624.999 345.5C626.77 340.364 628.981 331.338 631.452 321.244C635.958 302.843 641.333 280.895 646.499 272.5C632.332 277 602.099 292.4 594.499 318C595.332 295.667 593.699 245.9 580.499 225.5C577.779 221.297 575.386 217.352 573.081 213.553C561.402 194.304 551.999 178.808 513.999 152.5H512.499C520.166 160.833 533.199 184.4 523.999 212L518.999 220C515.332 194.167 494.099 130.9 438.499 84.5C454.999 124 460.999 152.5 446.999 177C432.666 191.667 403.499 229.4 401.499 263C395.332 250.667 388.699 215.6 411.499 174C371.832 187.5 296.399 240.5 311.999 344.5C308.333 335.667 293.1 313.5 261.5 295.5C280 327.5 303.2 382.1 302 432.5C304.5 451.5 320.5 496.5 358.5 527C384.293 547.199 403.712 554.265 416.397 558.88C424.122 561.691 429.35 563.594 432 567ZM317 359C303 332.2 291 323 282.5 319.5C304.932 369.891 306.452 401.68 307.51 423.801C308.079 435.702 308.514 444.805 311.999 452.5C325.302 511.7 392.876 548.5 425 559.5C416.502 543.921 415.582 541.268 412.139 531.341C411.935 530.754 411.723 530.142 411.5 529.5C411.017 528.113 408.974 539.887 408.087 545.001L408 545.5C402.8 535.349 405.167 507.937 407 495.5C404.667 499.5 399.8 507.7 398.999 508.5C394.998 491.7 407.999 463.167 415 451C415.4 443 404.167 444 398.5 445.5C362.1 453.9 347.667 453.667 345 452.5C336.6 448.9 326.833 431.667 323 423.5C320.333 420 315 412.8 315 412C315 411.2 318 408.667 319.5 407.5L378 383C377.6 381.8 378.5 379.5 379 378.5C380.599 375.7 383.499 376.167 384.5 376.5V375C389.13 365.74 392.231 358.832 394.711 353.309C399.46 342.728 401.93 337.227 408.5 330C415.601 321.547 425.674 317.667 444.751 310.319C453.884 306.801 465.079 302.489 479 296.5L527.5 232C537.9 252.8 544.333 311.667 546 338C579.2 370.4 592.5 403.5 595 416C581.888 401.2 569.203 397.833 564.5 398C584.5 437.6 579.166 474.833 573.999 488.5C573.999 484.5 569.666 470.5 567.499 464C561.5 498 524.5 541 510 554C606.8 507.6 611.5 455.5 612.5 414C611 377 627 305 637 282.5C617.4 286.9 598.333 313.5 591.5 326.5C597.5 229 560 195.5 528 170C542 199 524.667 217.333 518 224C498.4 157.2 471.5 126 460 118C470 159.5 452 183.5 448 186.5C444.8 188.9 434.333 201.5 429.5 207.5C413.5 225.1 404.166 255.5 401.499 268.5H400.5C388.1 250.1 391 208.833 394 190.5C347.098 212.1 324.458 258.5 319 279C309.8 300.6 311.999 336 317 359Z" fill="black"/>
<path d="M408 545.5C402.8 535.349 405.167 507.937 407 495.5C404.667 499.5 399.8 507.7 398.999 508.5C394.998 491.7 407.999 463.167 415 451C415.4 443 404.167 444 398.5 445.5C362.1 453.9 347.667 453.667 345 452.5C336.6 448.9 326.833 431.667 323 423.5C320.333 420 315 412.8 315 412C315 411.2 318 408.667 319.5 407.5L378 383C377.6 381.8 378.5 379.5 379 378.5C380.599 375.7 383.499 376.167 384.5 376.5V375C389.13 365.74 392.231 358.832 394.711 353.309C399.46 342.728 401.93 337.227 408.5 330C415.601 321.547 425.674 317.667 444.751 310.319C453.884 306.801 465.079 302.489 479 296.5L527.5 232C537.9 252.8 544.333 311.667 546 338C579.2 370.4 592.5 403.5 595 416C581.888 401.2 569.203 397.833 564.5 398C584.5 437.6 579.166 474.833 573.999 488.5C573.999 484.5 569.666 470.5 567.499 464C561.5 498 524.5 541 510 554C606.8 507.6 611.5 455.5 612.5 414C611 377 627 305 637 282.5C617.4 286.9 598.333 313.5 591.5 326.5C597.5 229 560 195.5 528 170C542 199 524.667 217.333 518 224C498.4 157.2 471.5 126 460 118C470 159.5 452 183.5 448 186.5C444.8 188.9 434.333 201.5 429.5 207.5C413.5 225.1 404.166 255.5 401.499 268.5H400.5C388.1 250.1 391 208.833 394 190.5C347.098 212.1 324.458 258.5 319 279C309.8 300.6 311.999 336 317 359C303 332.2 291 323 282.5 319.5C304.932 369.891 306.452 401.68 307.51 423.801C308.079 435.702 308.514 444.805 311.999 452.5C325.302 511.7 392.876 548.5 425 559.5C416.502 543.921 415.582 541.268 412.139 531.341C411.935 530.754 411.723 530.142 411.5 529.5C411.017 528.113 408.974 539.887 408.087 545.001M408 545.5L408.087 545.001M408 545.5C408.027 545.342 408.056 545.175 408.087 545.001M432 567C424.666 554.5 410.3 528 411.5 522L408.499 529.5L408.999 490L401.499 498.5C402.499 488.667 406.799 465.6 415.999 452C417.666 449.167 418.299 443.2 407.499 442H398.999C391.499 444 373.799 448.3 362.999 449.5C361.267 449.692 359.725 449.885 358.335 450.058C348.887 451.237 346.473 451.538 339.499 445C333.099 439 327.832 428.833 325.999 424.5L340.499 415C341.832 413.333 343.499 410 339.499 410L328.999 406.5L379.499 386.5C380.332 385.167 381.999 382.2 381.999 381C381.999 379.8 384.999 379.833 386.499 380L406.999 339.5C409.499 334.167 419.599 322.1 439.999 316.5C440.799 316.5 466.999 304.833 479.999 299L524.999 246.5C531.166 263.833 543.499 306.4 543.499 338C555.832 351.333 581.699 383 586.499 403C580.666 399 567.399 391.7 560.999 394.5C568.332 408.167 581.199 443.8 573.999 477C572.832 472.833 569.899 463.4 567.499 459C560.832 482.333 536.099 536.1 490.499 564.5C506.832 559 546.999 541 576.999 513C606.999 485 615.166 451.333 615.499 438C616.999 412 620.999 357.1 624.999 345.5C626.77 340.364 628.981 331.338 631.452 321.244C635.958 302.843 641.333 280.895 646.499 272.5C632.332 277 602.099 292.4 594.499 318C595.332 295.667 593.699 245.9 580.499 225.5C577.779 221.297 575.386 217.352 573.081 213.553C561.402 194.304 551.999 178.808 513.999 152.5H512.499C520.166 160.833 533.199 184.4 523.999 212L518.999 220C515.332 194.167 494.099 130.9 438.499 84.5C454.999 124 460.999 152.5 446.999 177C432.666 191.667 403.499 229.4 401.499 263C395.332 250.667 388.699 215.6 411.499 174C371.832 187.5 296.399 240.5 311.999 344.5C308.333 335.667 293.1 313.5 261.5 295.5C280 327.5 303.2 382.1 302 432.5C304.5 451.5 320.5 496.5 358.5 527C384.293 547.199 403.712 554.265 416.397 558.88C424.122 561.691 429.35 563.594 432 567Z" stroke="black" stroke-width="0.25"/>
<path d="M282.5 319.5C291 323 303 332.2 317 359C311.999 336 309.8 300.6 319 279C324.458 258.5 347.098 212.1 394 190.5C391 208.833 388.1 250.1 400.5 268.5H401.499C404.166 255.5 413.5 225.1 429.5 207.5C434.333 201.5 444.8 188.9 448 186.5C452 183.5 470 159.5 460 118C471.5 126 498.4 157.2 518 224C524.667 217.333 542 199 528 170C560 195.5 597.5 229 591.5 326.5C598.333 313.5 617.4 286.9 637 282.5C627 305 611 377 612.5 414C611.5 455.5 606.8 507.6 510 554C524.5 541 561.5 498 567.499 464C569.666 470.5 573.999 484.5 573.999 488.5C579.166 474.833 584.5 437.6 564.5 398C569.203 397.833 581.888 401.2 595 416C592.5 403.5 579.2 370.4 546 338C544.333 311.667 537.9 252.8 527.5 232L479 296.5C465.079 302.489 453.884 306.801 444.751 310.319C425.674 317.667 415.601 321.547 408.5 330C401.93 337.227 399.46 342.728 394.711 353.309C392.231 358.832 389.13 365.74 384.5 375V376.5C383.499 376.167 380.599 375.7 379 378.5C378.5 379.5 377.6 381.8 378 383L319.5 407.5C318 408.667 315 411.2 315 412C315 412.8 320.333 420 323 423.5C326.833 431.667 336.6 448.9 345 452.5C347.667 453.667 362.1 453.9 398.5 445.5C404.167 444 415.4 443 415 451C407.999 463.167 394.998 491.7 398.999 508.5C399.8 507.7 404.667 499.5 407 495.5C405.167 507.937 402.8 535.349 408 545.5L408.087 545.001C408.974 539.887 411.017 528.113 411.5 529.5C411.723 530.142 411.935 530.754 412.139 531.341C415.582 541.268 416.502 543.921 425 559.5C392.876 548.5 325.302 511.7 311.999 452.5C308.514 444.805 308.079 435.702 307.51 423.801C306.452 401.68 304.932 369.891 282.5 319.5Z" fill="#BF1520"/>
<path d="M408 545.5C402.8 535.349 405.167 507.937 407 495.5C404.667 499.5 399.8 507.7 398.999 508.5C394.998 491.7 407.999 463.167 415 451C415.4 443 404.167 444 398.5 445.5C362.1 453.9 347.667 453.667 345 452.5C336.6 448.9 326.833 431.667 323 423.5C320.333 420 315 412.8 315 412C315 411.2 318 408.667 319.5 407.5L378 383C377.6 381.8 378.5 379.5 379 378.5C380.599 375.7 383.499 376.167 384.5 376.5V375C389.13 365.74 392.231 358.832 394.711 353.309C399.46 342.728 401.93 337.227 408.5 330C415.601 321.547 425.674 317.667 444.751 310.319C453.884 306.801 465.079 302.489 479 296.5L527.5 232C537.9 252.8 544.333 311.667 546 338C579.2 370.4 592.5 403.5 595 416C581.888 401.2 569.203 397.833 564.5 398C584.5 437.6 579.166 474.833 573.999 488.5C573.999 484.5 569.666 470.5 567.499 464C561.5 498 524.5 541 510 554C606.8 507.6 611.5 455.5 612.5 414C611 377 627 305 637 282.5C617.4 286.9 598.333 313.5 591.5 326.5C597.5 229 560 195.5 528 170C542 199 524.667 217.333 518 224C498.4 157.2 471.5 126 460 118C470 159.5 452 183.5 448 186.5C444.8 188.9 434.333 201.5 429.5 207.5C413.5 225.1 404.166 255.5 401.499 268.5H400.5C388.1 250.1 391 208.833 394 190.5C347.098 212.1 324.458 258.5 319 279C309.8 300.6 311.999 336 317 359C303 332.2 291 323 282.5 319.5C304.932 369.891 306.452 401.68 307.51 423.801C308.079 435.702 308.514 444.805 311.999 452.5C325.302 511.7 392.876 548.5 425 559.5C416.502 543.921 415.582 541.268 412.139 531.341C411.935 530.754 411.723 530.142 411.5 529.5C411.017 528.113 408.974 539.887 408.087 545.001M408 545.5L408.087 545.001M408 545.5C408.027 545.342 408.056 545.175 408.087 545.001M432 567C424.666 554.5 410.3 528 411.5 522L408.499 529.5L408.999 490L401.499 498.5C402.499 488.667 406.799 465.6 415.999 452C417.666 449.167 418.299 443.2 407.499 442H398.999C391.499 444 373.799 448.3 362.999 449.5C361.267 449.692 359.725 449.885 358.335 450.058C348.887 451.237 346.473 451.538 339.499 445C333.099 439 327.832 428.833 325.999 424.5L340.499 415C341.832 413.333 343.499 410 339.499 410L328.999 406.5L379.499 386.5C380.332 385.167 381.999 382.2 381.999 381C381.999 379.8 384.999 379.833 386.499 380L406.999 339.5C409.499 334.167 419.599 322.1 439.999 316.5C440.799 316.5 466.999 304.833 479.999 299L524.999 246.5C531.166 263.833 543.499 306.4 543.499 338C555.832 351.333 581.699 383 586.499 403C580.666 399 567.399 391.7 560.999 394.5C568.332 408.167 581.199 443.8 573.999 477C572.832 472.833 569.899 463.4 567.499 459C560.832 482.333 536.099 536.1 490.499 564.5C506.832 559 546.999 541 576.999 513C606.999 485 615.166 451.333 615.499 438C616.999 412 620.999 357.1 624.999 345.5C626.77 340.364 628.981 331.338 631.452 321.244C635.958 302.843 641.333 280.895 646.499 272.5C632.332 277 602.099 292.4 594.499 318C595.332 295.667 593.699 245.9 580.499 225.5C577.779 221.297 575.386 217.352 573.081 213.553C561.402 194.304 551.999 178.808 513.999 152.5H512.499C520.166 160.833 533.199 184.4 523.999 212L518.999 220C515.332 194.167 494.099 130.9 438.499 84.5C454.999 124 460.999 152.5 446.999 177C432.666 191.667 403.499 229.4 401.499 263C395.332 250.667 388.699 215.6 411.499 174C371.832 187.5 296.399 240.5 311.999 344.5C308.333 335.667 293.1 313.5 261.5 295.5C280 327.5 303.2 382.1 302 432.5C304.5 451.5 320.5 496.5 358.5 527C384.293 547.199 403.712 554.265 416.397 558.88C424.122 561.691 429.35 563.594 432 567Z" stroke="black" stroke-width="0.25"/>
<path d="M475 241L448 296.5L475 290.5L485.5 275L475 241Z" fill="white"/>
<path fillRule="evenodd" clipRule="evenodd" d="M446.5 297.5L475.5 235L487 274.5L475.5 291L446.5 297.5ZM484.5 274.5L475.5 244.5L448.5 296L475.5 288.5L484.5 274.5Z" fill="black" stroke="black"/>
<path d="M518.499 263C513.699 265 499.832 289.5 493.499 301.5C493.499 303.1 495.165 303.833 495.999 304C505.199 306.8 520.832 324.167 527.499 332.5C523.499 320 519.999 315 510.499 309C518.499 302 521.999 300.5 533.999 297C524.399 293.4 511.999 297.833 506.999 300.5C505.399 296.5 513.999 273.833 518.499 263Z" fill="black"/>
<path d="M395.499 377C396.699 378.6 399.665 379.667 400.999 380C392.999 382.4 391.665 377.667 391.999 375C392.832 375 394.899 374.7 396.499 373.5C398.099 372.3 398.499 373.667 398.499 374.5C397.299 375.3 395.999 376.5 395.499 377Z" fill="black"/>
<path d="M386.999 384.5H384.499C383.299 386.1 384.999 386.833 385.999 387C388.999 387 387.999 386 390.999 385.5C394.199 385.9 395.999 388 399.999 388.5C394.399 381.7 388.999 383 386.999 384.5Z" fill="black"/>
<path d="M492.499 445C487.299 437 478.666 436 474.999 436.5C487.999 440.161 488.999 445.5 493.499 450C500.499 440.5 502.499 435.5 498.999 426C508.499 425 513.499 429 519.499 438C517.999 417 512.999 403 502.499 389.5C511.299 405.5 514.499 415.5 514.499 426.5C506.899 420.9 497.332 421.833 493.499 423C500.299 432.6 495.666 441.667 492.499 445Z" fill="black"/>
<path d="M518.499 263C513.699 265 499.832 289.5 493.499 301.5C493.499 303.1 495.165 303.833 495.999 304C505.199 306.8 520.832 324.167 527.499 332.5C523.499 320 519.999 315 510.499 309C518.499 302 521.999 300.5 533.999 297C524.399 293.4 511.999 297.833 506.999 300.5C505.399 296.5 513.999 273.833 518.499 263Z" stroke="black" stroke-width="0.25"/>
<path d="M395.499 377C396.699 378.6 399.665 379.667 400.999 380C392.999 382.4 391.665 377.667 391.999 375C392.832 375 394.899 374.7 396.499 373.5C398.099 372.3 398.499 373.667 398.499 374.5C397.299 375.3 395.999 376.5 395.499 377Z" stroke="black" stroke-width="0.25"/>
<path d="M386.999 384.5H384.499C383.299 386.1 384.999 386.833 385.999 387C388.999 387 387.999 386 390.999 385.5C394.199 385.9 395.999 388 399.999 388.5C394.399 381.7 388.999 383 386.999 384.5Z" stroke="black" stroke-width="0.25"/>
<path d="M492.499 445C487.299 437 478.666 436 474.999 436.5C487.999 440.161 488.999 445.5 493.499 450C500.499 440.5 502.499 435.5 498.999 426C508.499 425 513.499 429 519.499 438C517.999 417 512.999 403 502.499 389.5C511.299 405.5 514.499 415.5 514.499 426.5C506.899 420.9 497.332 421.833 493.499 423C500.299 432.6 495.666 441.667 492.499 445Z" stroke="black" stroke-width="0.25"/>
<path d="M416 384.5C409.6 386.5 404 382.833 402 380.5C410.5 378 412 374 418 372C424.8 370 427.5 371.5 427.5 375.5C426.333 377.667 422.4 382.5 416 384.5Z" fill="#BF1520"/>
<path d="M84 372C84 420.852 93.6221 469.225 112.317 514.358C131.012 559.491 158.413 600.5 192.956 635.044C227.5 669.587 268.509 696.988 313.642 715.683C358.775 734.378 407.148 744 456 744C504.852 744 553.225 734.378 598.358 715.683C643.491 696.988 684.5 669.587 719.044 635.044C753.587 600.5 780.988 559.491 799.683 514.358C818.378 469.225 828 420.852 828 372L746.738 372C746.738 410.18 739.218 447.987 724.607 483.261C709.996 518.535 688.58 550.585 661.583 577.583C634.585 604.58 602.535 625.996 567.261 640.607C531.987 655.218 494.18 662.738 456 662.738C417.82 662.738 380.013 655.218 344.739 640.607C309.465 625.996 277.415 604.58 250.417 577.583C223.42 550.585 202.004 518.535 187.393 483.261C172.782 447.987 165.262 410.18 165.262 372L84 372Z" fill="black"/>
<path d="M828 372C828 273.339 788.807 178.72 719.044 108.956C649.28 39.1928 554.661 7.44866e-06 456 0C357.339 -7.44866e-06 262.72 39.1927 192.956 108.956C123.193 178.72 84 273.339 84 372L165.262 372C165.262 294.891 195.893 220.941 250.417 166.417C304.941 111.893 378.891 81.2619 456 81.2619C533.109 81.2619 607.059 111.893 661.583 166.417C716.107 220.941 746.738 294.891 746.738 372H828Z" fill="#BF1520"/>
<path d="M179.995 195.811C180.995 194.156 180.464 192.005 178.81 191.005C177.156 190.005 175.004 190.535 174.004 192.189L179.995 195.811ZM174.004 192.189C105.318 305.825 104.348 432.71 176.493 553.792L182.506 550.208C111.65 431.29 112.682 307.175 179.995 195.811L174.004 192.189Z" fill="white"/>
<path d="M734.505 195.811C733.505 194.156 734.036 192.005 735.69 191.005C737.344 190.005 739.496 190.535 740.496 192.189L734.505 195.811ZM740.496 192.189C809.182 305.825 810.152 432.71 738.007 553.792L731.994 550.208C802.85 431.29 801.818 307.175 734.505 195.811L740.496 192.189Z" fill="white"/>
<path d="M282 545C119.501 356 268.5 133.5 444 126L440 111.5C248.5 111.5 105.5 386 282 545Z" fill="black"/>
<path d="M490 128L479.5 111.5C723.5 141 776 419.5 640 541.5C770 403 697 157 490 128Z" fill="black"/>
<path d="M282 545C119.501 356 268.5 133.5 444 126L440 111.5C248.5 111.5 105.5 386 282 545Z" stroke="black"/>
<path d="M490 128L479.5 111.5C723.5 141 776 419.5 640 541.5C770 403 697 157 490 128Z" stroke="black"/>
<path d="M165.694 169.42L185.064 143.195L192.182 147.667L180.055 164.084L185.354 167.412L196.603 152.183L203.403 156.454L192.154 171.683L198.726 175.812L211.203 158.919L218.753 163.662L199.032 190.361L165.694 169.42Z" fill="white"/>
<path d="M196.201 130.361L205.879 121.091L219.978 124.303L215.809 111.58L225.39 102.404L230.804 123.534L255.664 127.744L245.792 137.2L230.728 134.17L234.563 147.955L224.749 157.355L219.22 134.333L196.201 130.361Z" fill="white"/>
<path d="M237.708 92.7879L268.278 71.979L274.353 79.5687L264.097 86.5504L282.624 109.697L272.567 116.543L254.04 93.396L243.783 100.378L237.708 92.7879Z" fill="white"/>
<path d="M284.631 63.2792L295.491 57.7372L315.748 91.4956L304.888 97.0377L284.631 63.2792Z" fill="white"/>
<path d="M314.659 48.6148L325.377 44.8481L347.681 60.0611L339.362 39.9326L350.181 36.1302L365.218 72.5154L354.4 76.3178L332.233 61.2269L340.49 81.2065L329.697 85L314.659 48.6148Z" fill="white"/>
<path d="M397.519 51.4597L395.939 43.4227L414.48 40.3227L417.718 56.7922C414.642 59.7923 411.821 61.9604 409.257 63.2963C406.707 64.6118 403.56 65.5825 399.816 66.2084C395.207 66.9789 391.292 66.826 388.071 65.7496C384.868 64.6703 382.159 62.719 379.944 59.8958C377.747 57.0697 376.255 53.6539 375.467 49.6486C374.639 45.4324 374.793 41.6235 375.929 38.2218C377.063 34.8025 379.157 32.0028 382.212 29.8227C384.598 28.1355 388.016 26.92 392.466 26.176C396.757 25.4586 400.038 25.3092 402.309 25.7279C404.598 26.1437 406.6 27.0518 408.316 28.4523C410.047 29.8323 411.51 31.7106 412.707 34.0871L401.536 38.0777C400.773 36.6993 399.741 35.7196 398.441 35.1385C397.159 34.5545 395.635 34.4101 393.869 34.7053C391.238 35.1452 389.316 36.41 388.104 38.4998C386.906 40.569 386.693 43.5712 387.467 47.5063C388.289 51.6873 389.662 54.5424 391.586 56.0715C393.527 57.5977 395.911 58.1246 398.736 57.6522C400.078 57.4279 401.32 57.0206 402.463 56.4304C403.605 55.8402 404.871 54.9482 406.259 53.7544L405.545 50.1179L397.519 51.4597Z" fill="white"/>
<path d="M460.028 21.7781L472.167 21.8389L472.029 45.3102C472.015 47.6376 471.635 49.8379 470.889 51.911C470.16 53.9663 469.013 55.7689 467.446 57.3186C465.897 58.8506 464.271 59.9256 462.566 60.5437C460.198 61.4091 457.357 61.8336 454.045 61.817C452.13 61.8074 450.036 61.6626 447.764 61.3826C445.509 61.1028 443.624 60.5652 442.106 59.7698C440.589 58.9565 439.2 57.8127 437.937 56.3382C436.693 54.8639 435.842 53.3467 435.386 51.7868C434.649 49.2766 434.286 47.0547 434.297 45.1211L434.435 21.6498L446.574 21.7107L446.432 45.7459C446.42 47.8943 447.001 49.5802 448.175 50.8035C449.367 52.0091 451.02 52.6171 453.133 52.6277C455.227 52.6382 456.869 52.0556 458.058 50.8799C459.264 49.6864 459.874 47.9975 459.887 45.8133L460.028 21.7781Z" fill="white"/>
<path d="M495.165 24.0313L507.245 25.6779L501.015 64.5519L488.934 62.9053L495.165 24.0313Z" fill="white"/>
<path d="M528.632 28.9539L546.091 33.6291C549.533 34.5507 552.163 35.755 553.983 37.2422C555.82 38.734 557.158 40.5275 557.999 42.6228C558.839 44.7181 559.21 46.9932 559.112 49.4483C559.014 51.9033 558.562 54.4116 557.755 56.9732C556.492 60.9863 555.044 63.9778 553.411 65.9477C551.8 67.9052 549.937 69.4154 547.821 70.4782C545.71 71.5239 543.634 72.042 541.593 72.0325C538.801 72.0255 536.359 71.7418 534.266 71.1815L516.808 66.5063L528.632 28.9539ZM537.706 40.6052L531.245 61.1232L534.125 61.8943C536.581 62.5519 538.411 62.755 539.615 62.5035C540.825 62.2349 541.933 61.5133 542.941 60.3387C543.953 59.1471 544.933 57.0485 545.88 54.043C547.132 50.064 547.333 47.1642 546.481 45.3436C545.629 43.5231 543.681 42.2052 540.637 41.3901L537.706 40.6052Z" fill="white"/>
<path d="M573.584 61.9422C576.638 56.2865 580.642 52.6303 585.597 50.9735C590.553 49.3168 595.934 49.8219 601.743 52.4889C607.698 55.2231 611.449 58.8816 612.995 63.4643C614.549 68.0313 613.821 73.1033 610.81 78.6803C608.624 82.7291 606.121 85.7282 603.302 87.6777C600.508 89.619 597.386 90.7017 593.935 90.9259C590.508 91.1418 586.81 90.3384 582.84 88.5156C578.805 86.6629 575.798 84.5054 573.818 82.0431C571.854 79.5883 570.777 76.6367 570.588 73.1882C570.4 69.7397 571.398 65.991 573.584 61.9422ZM584.614 67.0657C582.726 70.5631 582.037 73.3822 582.546 75.523C583.071 77.6712 584.489 79.2757 586.799 80.3365C589.175 81.4272 591.418 81.523 593.527 80.624C595.637 79.725 597.738 77.3378 599.83 73.4622C601.591 70.2011 602.192 67.5085 601.633 65.3843C601.099 63.2519 599.669 61.6515 597.342 60.5832C595.113 59.5598 592.911 59.5021 590.736 60.4102C588.56 61.3183 586.52 63.5368 584.614 67.0657Z" fill="white"/>
<path d="M614.353 102.729L639.126 72.1299L655.826 83.6279C658.923 85.7599 661.087 87.6399 662.319 89.2678C663.55 90.8957 664.115 92.7367 664.014 94.7908C663.924 96.8309 663.09 98.8251 661.513 100.773C660.139 102.471 658.567 103.675 656.797 104.385C655.039 105.082 653.179 105.351 651.218 105.192C649.968 105.091 648.469 104.687 646.721 103.982C647.611 105.18 648.177 106.154 648.418 106.906C648.584 107.41 648.681 108.311 648.71 109.61C648.753 110.918 648.712 111.876 648.588 112.484L646.25 124.69L634.925 116.892L637.142 103.856C637.444 102.178 637.476 100.976 637.238 100.249C636.898 99.278 636.271 98.478 635.357 97.8485L634.472 97.2393L624.418 109.659L614.353 102.729ZM639.153 91.4576L643.378 94.3663C643.835 94.6811 644.833 95.1511 646.37 95.7764C647.135 96.108 647.933 96.1585 648.762 95.9279C649.607 95.7075 650.299 95.2633 650.84 94.5954C651.64 93.6074 651.922 92.6206 651.687 91.6349C651.451 90.6493 650.419 89.527 648.591 88.2681L644.189 85.2375L639.153 91.4576Z" fill="white"/>
<path d="M684.767 105.294L708.189 127.973L701.874 133.52L687.211 119.323L682.509 123.452L696.111 136.622L690.078 141.921L676.476 128.751L670.645 133.872L685.732 148.481L679.033 154.365L655.186 131.274L684.767 105.294Z" fill="white"/>
<path d="M698.09 155.127L705.581 164.051C704.138 165.253 703.228 166.425 702.852 167.568C702.247 169.424 702.636 171.288 704.019 173.16C705.051 174.557 706.184 175.415 707.42 175.735C708.681 176.061 709.766 175.938 710.676 175.366C711.54 174.823 712.047 173.978 712.198 172.829C712.348 171.68 711.758 169.605 710.429 166.603C708.275 161.674 707.364 157.766 707.696 154.88C708.017 151.979 709.481 149.71 712.089 148.072C713.802 146.996 715.762 146.45 717.97 146.434C720.203 146.422 722.449 147.088 724.706 148.432C726.99 149.781 729.349 152.104 731.785 155.402C734.774 159.448 736.255 163.03 736.227 166.147C736.224 169.269 734.644 172.117 731.485 174.692L724.103 165.825C725.423 164.637 726.132 163.433 726.229 162.213C726.337 161.006 725.88 159.712 724.859 158.329C724.019 157.192 723.128 156.497 722.187 156.245C721.261 155.983 720.435 156.08 719.707 156.538C719.176 156.871 718.874 157.409 718.801 158.15C718.701 158.887 719.101 160.239 719.998 162.205C722.187 167.092 723.462 170.771 723.823 173.243C724.21 175.72 723.976 177.838 723.123 179.597C722.28 181.37 720.948 182.828 719.129 183.971C716.991 185.314 714.606 185.99 711.972 186C709.338 186.01 706.807 185.302 704.377 183.876C701.963 182.441 699.623 180.19 697.358 177.123C693.379 171.737 691.716 167.321 692.367 163.876C693.019 160.431 694.926 157.514 698.09 155.127Z" fill="white"/>
</svg>
