<svg width="744" height="744" viewBox="0 0 744 744" fill="none" xmlns="http://www.w3.org/2000/svg">
<ellipse cx="371.5" cy="372" rx="350.5" ry="359" fill="white"/>
<path fillRule="evenodd" clipRule="evenodd" d="M203.5 602L230 616.5C231.5 616.833 234.3 616.5 233.5 612.5C232.167 611 229.6 607.8 230 607C230.4 606.2 230.5 604 230.5 603L239 588L249.5 594L249 625C251.167 627.667 258.1 633.9 268.5 637.5C270.5 637 272.9 634.1 266.5 626.5V598.5C272.167 599.333 285.2 598 292 586C293.833 582.5 295.8 572.8 289 562C282.2 551.2 257.833 538.167 246.5 533C245 531.833 241.7 530.1 240.5 532.5C239.3 534.9 242 539.167 243.5 541L213.5 595.5C212.167 596.167 208.5 597.3 204.5 596.5C203.5 596.667 201.9 598 203.5 602ZM259 587L244.5 579.5L260 551C269.6 554.2 274 562 275 565.5C279.4 585.1 266.167 588 259 587Z" fill="black"/>
<path fillRule="evenodd" clipRule="evenodd" d="M320 590C325.167 589.833 337.501 592.4 345.501 604C348.501 609.167 352.501 622.8 344.501 636C341.5 640.833 332.4 650.5 320 650.5C312.5 650.667 296.301 647.3 291.501 632.5C290.501 626 290.001 610.9 296.001 602.5C303.501 592 314.501 589.419 320 590ZM320 597.5C313.2 597.9 310.167 604.667 309.5 608C308.3 617.2 308.334 628.167 308.5 632.5C309.167 635.833 312.2 642.5 319 642.5C325.8 642.5 329.167 635.833 330 632.5V607C329.5 603.667 326.8 597.1 320 597.5Z" fill="black"/>
<path d="M393.5 612.5C391.1 602.5 383.833 602.667 380.5 604C373.3 607.6 373.167 618.5 374 623.5C375.5 633.5 380.5 638.5 383.5 641C386.5 643.5 396 643 404 638.5C410.4 634.9 410.667 638.333 410 640.5C407.2 648.9 397.833 653.667 393.5 655C382 657 358.7 654.6 357.5 629C356.3 603.4 372.333 596 380.5 595.5H389C396.2 595.5 401.667 598.833 403.5 600.5C407 604.333 412.1 613.1 404.5 617.5C396.9 621.9 394 616 393.5 612.5Z" fill="black"/>
<path d="M422.5 565.5C416 563.5 404.5 575 404 576C402.8 576 403.5 578.333 404 579.5L411 581C417.334 600.5 429.9 639.9 429.5 641.5C429 643.5 427 644.5 425.5 647C424.3 649 426.667 650.833 428 651.5C435.834 649.333 452.2 644.6 455 643C457.8 641.4 455.167 638.333 453.5 637C447.1 638.2 444.834 632.833 444.5 630L438 606C439.5 603.167 443.8 597.2 449 596C454.2 594.8 458.834 604.167 460.5 609C462.334 615.333 465.8 628.6 465 631C464.2 633.4 463 635 462.5 635.5C461.7 638.3 464.5 639.333 466 639.5L491 631C492.2 629.8 490.5 627.167 489.5 626C482.3 625.6 480.5 621.167 480.5 619C478.5 607 473.334 595 471 590.5C470.167 588.333 466.2 583.4 457 581C447.8 578.6 438.5 592 435 599C433.167 593.667 429 581.1 427 573.5C425 565.9 423.167 565 422.5 565.5Z" fill="black"/>
<path d="M492.137 548.015C491.93 545.894 494.109 544.354 496.039 545.257L563.275 576.699C565.187 577.593 565.421 580.218 563.698 581.436L503.673 623.867C501.949 625.086 499.553 623.989 499.348 621.889L492.137 548.015Z" fill="#FFF500" stroke="black" stroke-width="2.5"/>
<path d="M515.168 605.683L527.469 608.553L543.903 598.739L545.761 592.101L544.28 583.376L525.698 568.95L515.701 570.672L514.687 581.156L514.289 588.541L512.85 595.772L509.532 601.665L511.829 603.597L515.168 605.683Z" fill="white"/>
<path fillRule="evenodd" clipRule="evenodd" d="M535.153 609.351C533.507 608.648 530.142 607.071 529.846 606.385L530.058 607.353L527.337 603.383L527.148 604.783C526.563 603.731 525.393 601.116 525.402 599.082C525.378 598.677 525.025 598.036 523.809 598.715L522.919 599.343C522.274 600.096 520.722 601.831 519.675 602.748C519.507 602.896 519.359 603.029 519.226 603.149C518.319 603.964 518.087 604.172 516.898 604.036C515.806 603.912 514.541 603.288 514.044 602.992L514.896 600.975C514.919 600.711 514.859 600.256 514.44 600.551L513.095 600.979L516.98 595.257C516.973 595.063 516.939 594.644 516.855 594.525C516.771 594.405 517.087 594.187 517.256 594.093L516.56 588.546C516.447 587.83 516.658 585.883 518.401 583.818C518.485 583.759 520.41 580.662 521.362 579.121L522.389 570.57C524.252 571.84 528.532 575.167 530.751 578.314C532.979 578.73 537.912 579.973 539.819 581.609C538.928 581.642 537.025 581.895 536.552 582.647C538.279 583.466 542.129 586.063 543.706 589.901C543.292 589.572 542.322 588.849 541.762 588.589C542.702 591.404 543.887 598.585 541.105 604.781C542.429 603.027 545.372 598.267 546.549 593.264C547.725 588.26 546.216 584.304 545.315 582.952C543.646 580.253 540.21 574.491 539.814 573.04C539.639 572.398 539.237 571.336 538.787 570.148C537.967 567.984 536.989 565.401 536.94 564.184C535.772 565.678 533.687 569.445 534.689 572.555C533.208 570.27 529.542 565.435 526.727 564.379C526.147 564.162 525.619 563.946 525.111 563.738C522.536 562.684 520.463 561.835 514.636 562.023L514.479 562.134C515.867 562.397 518.887 563.781 519.861 567.208L519.899 568.374C517.701 566.073 511.035 561.342 501.953 560.829C506.455 563.543 509.085 565.938 509.339 569.411C508.867 571.93 508.462 577.842 510.612 581.335C509.1 580.563 505.943 577.561 505.41 571.735C502.203 576.009 498.024 586.858 506.96 596.061C505.956 595.452 502.804 594.37 498.23 594.912C502.415 596.732 508.679 600.455 512.092 605.562C513.688 607.269 518.524 610.567 524.646 610.797C528.766 610.903 531.296 610.172 532.949 609.695C533.955 609.404 534.636 609.207 535.153 609.351ZM508.502 597.135C505.154 595.501 503.251 595.471 502.115 595.751C508.003 599.111 510.394 602.164 512.059 604.289C512.954 605.431 513.639 606.306 514.544 606.814C520.094 611.726 529.756 610.399 533.893 609.121C531.909 608.198 531.627 608.002 530.569 607.267C530.506 607.224 530.441 607.179 530.373 607.131C530.225 607.029 530.837 608.352 531.104 608.927L531.13 608.983C529.872 608.356 528.195 605.452 527.514 604.078C527.55 604.649 527.616 605.825 527.589 605.964C525.99 604.587 525.348 600.785 525.227 599.057C524.707 598.231 523.601 599.16 523.113 599.728C519.89 603.253 518.362 604.296 518.001 604.377C516.868 604.639 514.635 603.644 513.66 603.114C513.135 602.963 512.071 602.64 512.014 602.56C511.958 602.481 512.095 602.007 512.17 601.78L516.577 595.019C516.451 594.929 516.383 594.634 516.366 594.497C516.336 594.1 516.673 593.933 516.801 593.892L516.696 593.742C516.531 592.478 516.37 591.562 516.242 590.828C515.997 589.424 515.869 588.694 516.05 587.489C516.2 586.123 516.983 584.992 518.465 582.852C519.174 581.827 520.044 580.571 521.082 578.946L521.632 568.941C524.182 570.244 528.99 575.63 531.013 578.129C536.766 578.903 540.483 581.216 541.623 582.276C539.21 581.771 537.645 582.372 537.164 582.736C542.04 585.202 544.095 589.303 544.514 591.046C544.233 590.647 542.796 589.574 542.113 589.086C543.872 592.915 543.016 599.929 542.41 602.295C549.291 590.525 546.125 584.99 543.315 580.784C540.56 577.211 537.18 568.86 536.648 565.881C534.904 567.767 534.774 571.824 534.971 573.623C528.754 563.472 522.473 562.906 517.331 562.731C520.834 564.584 520.306 567.69 520.076 568.846C513.332 563.643 508.324 562.524 506.557 562.576C510.519 565.97 510.319 569.689 510.111 570.283C509.944 570.759 509.732 572.786 509.647 573.741C509.207 576.675 510.364 580.391 510.998 581.883L510.893 581.957C508.303 581.04 505.709 576.717 504.735 574.67C501.34 580.286 502.226 586.578 503.094 589.022C503.647 591.852 506.363 595.215 508.502 597.135Z" fill="black"/>
<path d="M531.13 608.983C529.872 608.356 528.195 605.452 527.514 604.078C527.55 604.649 527.616 605.825 527.589 605.964C525.99 604.587 525.348 600.785 525.227 599.057C524.707 598.231 523.601 599.16 523.113 599.728C519.89 603.253 518.362 604.296 518.001 604.377C516.868 604.639 514.635 603.644 513.66 603.114C513.135 602.963 512.071 602.64 512.014 602.56C511.958 602.481 512.095 602.007 512.17 601.78L516.577 595.019C516.451 594.929 516.383 594.634 516.366 594.497C516.336 594.1 516.673 593.933 516.801 593.892L516.696 593.742C516.531 592.478 516.37 591.562 516.242 590.828C515.997 589.424 515.869 588.694 516.05 587.489C516.2 586.123 516.983 584.992 518.465 582.852C519.174 581.827 520.044 580.571 521.082 578.946L521.632 568.941C524.182 570.244 528.99 575.63 531.013 578.129C536.766 578.903 540.483 581.216 541.623 582.276C539.21 581.771 537.645 582.372 537.164 582.736C542.04 585.202 544.095 589.303 544.514 591.046C544.233 590.647 542.796 589.574 542.113 589.086C543.872 592.915 543.016 599.929 542.41 602.295C549.291 590.525 546.125 584.99 543.315 580.784C540.56 577.211 537.18 568.86 536.648 565.881C534.904 567.767 534.774 571.824 534.971 573.623C528.754 563.472 522.473 562.906 517.331 562.731C520.834 564.584 520.306 567.69 520.076 568.846C513.332 563.643 508.324 562.524 506.557 562.576C510.519 565.97 510.319 569.689 510.111 570.283C509.944 570.759 509.732 572.786 509.647 573.741C509.207 576.675 510.364 580.391 510.998 581.883L510.893 581.957C508.303 581.04 505.709 576.717 504.735 574.67C501.34 580.286 502.226 586.578 503.094 589.022C503.647 591.852 506.363 595.215 508.502 597.135C505.154 595.501 503.251 595.471 502.115 595.751C508.003 599.111 510.394 602.164 512.059 604.289C512.954 605.431 513.639 606.306 514.544 606.814C520.094 611.726 529.756 610.399 533.893 609.121C531.909 608.198 531.627 608.002 530.569 607.267C530.506 607.224 530.441 607.179 530.373 607.131C530.225 607.029 530.837 608.352 531.104 608.927M531.13 608.983L531.104 608.927M531.13 608.983C531.121 608.965 531.113 608.947 531.104 608.927M535.153 609.351C533.507 608.648 530.142 607.071 529.846 606.385L530.058 607.353L527.337 603.383L527.148 604.783C526.563 603.731 525.393 601.116 525.402 599.082C525.378 598.677 525.025 598.036 523.809 598.715L522.919 599.343C522.274 600.096 520.722 601.831 519.675 602.748C519.507 602.896 519.359 603.029 519.226 603.149C518.319 603.964 518.087 604.172 516.898 604.036C515.806 603.912 514.541 603.288 514.044 602.992L514.896 600.975C514.919 600.711 514.859 600.256 514.44 600.551L513.095 600.979L516.98 595.257C516.973 595.063 516.939 594.644 516.855 594.525C516.771 594.405 517.087 594.187 517.256 594.093L516.56 588.546C516.447 587.83 516.658 585.883 518.401 583.818C518.485 583.759 520.41 580.662 521.362 579.121L522.389 570.57C524.252 571.84 528.532 575.167 530.751 578.314C532.979 578.73 537.912 579.973 539.819 581.609C538.928 581.642 537.025 581.895 536.552 582.647C538.279 583.466 542.129 586.063 543.706 589.901C543.292 589.572 542.322 588.849 541.762 588.589C542.702 591.404 543.887 598.585 541.105 604.781C542.429 603.027 545.372 598.267 546.549 593.264C547.725 588.26 546.216 584.304 545.315 582.952C543.646 580.253 540.21 574.491 539.814 573.04C539.639 572.398 539.237 571.336 538.787 570.148C537.967 567.984 536.989 565.401 536.94 564.184C535.772 565.678 533.687 569.445 534.689 572.555C533.208 570.27 529.542 565.435 526.727 564.379C526.147 564.162 525.619 563.946 525.111 563.738C522.536 562.684 520.463 561.835 514.636 562.023L514.479 562.134C515.867 562.397 518.887 563.781 519.861 567.208L519.899 568.374C517.701 566.073 511.035 561.342 501.953 560.829C506.455 563.543 509.085 565.938 509.339 569.411C508.867 571.93 508.462 577.842 510.612 581.335C509.1 580.563 505.943 577.561 505.41 571.735C502.203 576.009 498.024 586.858 506.96 596.061C505.956 595.452 502.804 594.37 498.23 594.912C502.415 596.732 508.679 600.455 512.092 605.562C513.688 607.269 518.524 610.567 524.646 610.797C528.766 610.903 531.296 610.172 532.949 609.695C533.955 609.404 534.636 609.207 535.153 609.351Z" stroke="black" stroke-width="0.25"/>
<path d="M502.115 595.751C503.251 595.471 505.154 595.501 508.502 597.135C506.363 595.215 503.647 591.852 503.094 589.022C502.226 586.578 501.34 580.286 504.735 574.67C505.709 576.717 508.303 581.04 510.893 581.957L510.998 581.883C510.364 580.391 509.207 576.675 509.647 573.741C509.732 572.786 509.944 570.759 510.111 570.283C510.319 569.689 510.519 565.97 506.557 562.576C508.324 562.524 513.332 563.643 520.076 568.846C520.306 567.69 520.834 564.584 517.331 562.731C522.473 562.906 528.754 563.472 534.971 573.623C534.774 571.824 534.904 567.767 536.648 565.881C537.18 568.86 540.56 577.211 543.315 580.784C546.125 584.99 549.291 590.525 542.41 602.295C543.016 599.929 543.872 592.915 542.113 589.086C542.796 589.574 544.233 590.647 544.514 591.046C544.095 589.303 542.04 585.202 537.164 582.736C537.645 582.372 539.21 581.771 541.623 582.276C540.483 581.216 536.766 578.903 531.013 578.129C528.99 575.63 524.182 570.244 521.632 568.941L521.082 578.946C520.044 580.571 519.174 581.827 518.465 582.852C516.983 584.992 516.2 586.123 516.05 587.489C515.869 588.694 515.997 589.424 516.242 590.828C516.37 591.562 516.531 592.478 516.696 593.742L516.801 593.892C516.673 593.933 516.336 594.1 516.366 594.497C516.383 594.634 516.451 594.929 516.577 595.019L512.17 601.78C512.095 602.007 511.958 602.481 512.014 602.56C512.071 602.64 513.135 602.963 513.66 603.114C514.635 603.644 516.868 604.639 518.001 604.377C518.362 604.296 519.89 603.253 523.113 599.728C523.601 599.16 524.707 598.231 525.227 599.057C525.348 600.785 525.99 604.587 527.589 605.964C527.616 605.825 527.55 604.649 527.514 604.078C528.195 605.452 529.872 608.356 531.13 608.983L531.104 608.927C530.837 608.352 530.225 607.029 530.373 607.131C530.441 607.179 530.506 607.224 530.569 607.267C531.627 608.002 531.909 608.198 533.893 609.121C529.756 610.399 520.094 611.726 514.544 606.814C513.639 606.306 512.954 605.431 512.059 604.289C510.394 602.164 508.003 599.111 502.115 595.751Z" fill="#BF1520"/>
<path d="M531.13 608.983C529.872 608.356 528.195 605.452 527.514 604.078C527.55 604.649 527.616 605.825 527.589 605.964C525.99 604.587 525.348 600.785 525.227 599.057C524.707 598.231 523.601 599.16 523.113 599.728C519.89 603.253 518.362 604.296 518.001 604.377C516.868 604.639 514.635 603.644 513.66 603.114C513.135 602.963 512.071 602.64 512.014 602.56C511.958 602.481 512.095 602.007 512.17 601.78L516.577 595.019C516.451 594.929 516.383 594.634 516.366 594.497C516.336 594.1 516.673 593.933 516.801 593.892L516.696 593.742C516.531 592.478 516.37 591.562 516.242 590.828C515.997 589.424 515.869 588.694 516.05 587.489C516.2 586.123 516.983 584.992 518.465 582.852C519.174 581.827 520.044 580.571 521.082 578.946L521.632 568.941C524.182 570.244 528.99 575.63 531.013 578.129C536.766 578.903 540.483 581.216 541.623 582.276C539.21 581.771 537.645 582.372 537.164 582.736C542.04 585.202 544.095 589.303 544.514 591.046C544.233 590.647 542.796 589.574 542.113 589.086C543.872 592.915 543.016 599.929 542.41 602.295C549.291 590.525 546.125 584.99 543.315 580.784C540.56 577.211 537.18 568.86 536.648 565.881C534.904 567.767 534.774 571.824 534.971 573.623C528.754 563.472 522.473 562.906 517.331 562.731C520.834 564.584 520.306 567.69 520.076 568.846C513.332 563.643 508.324 562.524 506.557 562.576C510.519 565.97 510.319 569.689 510.111 570.283C509.944 570.759 509.732 572.786 509.647 573.741C509.207 576.675 510.364 580.391 510.998 581.883L510.893 581.957C508.303 581.04 505.709 576.717 504.735 574.67C501.34 580.286 502.226 586.578 503.094 589.022C503.647 591.852 506.363 595.215 508.502 597.135C505.154 595.501 503.251 595.471 502.115 595.751C508.003 599.111 510.394 602.164 512.059 604.289C512.954 605.431 513.639 606.306 514.544 606.814C520.094 611.726 529.756 610.399 533.893 609.121C531.909 608.198 531.627 608.002 530.569 607.267C530.506 607.224 530.441 607.179 530.373 607.131C530.225 607.029 530.837 608.352 531.104 608.927M531.13 608.983L531.104 608.927M531.13 608.983C531.121 608.965 531.113 608.947 531.104 608.927M535.153 609.351C533.507 608.648 530.142 607.071 529.846 606.385L530.058 607.353L527.337 603.383L527.148 604.783C526.563 603.731 525.393 601.116 525.402 599.082C525.378 598.677 525.025 598.036 523.809 598.715L522.919 599.343C522.274 600.096 520.722 601.831 519.675 602.748C519.507 602.896 519.359 603.029 519.226 603.149C518.319 603.964 518.087 604.172 516.898 604.036C515.806 603.912 514.541 603.288 514.044 602.992L514.896 600.975C514.919 600.711 514.859 600.256 514.44 600.551L513.095 600.979L516.98 595.257C516.973 595.063 516.939 594.644 516.855 594.525C516.771 594.405 517.087 594.187 517.256 594.093L516.56 588.546C516.447 587.83 516.658 585.883 518.401 583.818C518.485 583.759 520.41 580.662 521.362 579.121L522.389 570.57C524.252 571.84 528.532 575.167 530.751 578.314C532.979 578.73 537.912 579.973 539.819 581.609C538.928 581.642 537.025 581.895 536.552 582.647C538.279 583.466 542.129 586.063 543.706 589.901C543.292 589.572 542.322 588.849 541.762 588.589C542.702 591.404 543.887 598.585 541.105 604.781C542.429 603.027 545.372 598.267 546.549 593.264C547.725 588.26 546.216 584.304 545.315 582.952C543.646 580.253 540.21 574.491 539.814 573.04C539.639 572.398 539.237 571.336 538.787 570.148C537.967 567.984 536.989 565.401 536.94 564.184C535.772 565.678 533.687 569.445 534.689 572.555C533.208 570.27 529.542 565.435 526.727 564.379C526.147 564.162 525.619 563.946 525.111 563.738C522.536 562.684 520.463 561.835 514.636 562.023L514.479 562.134C515.867 562.397 518.887 563.781 519.861 567.208L519.899 568.374C517.701 566.073 511.035 561.342 501.953 560.829C506.455 563.543 509.085 565.938 509.339 569.411C508.867 571.93 508.462 577.842 510.612 581.335C509.1 580.563 505.943 577.561 505.41 571.735C502.203 576.009 498.024 586.858 506.96 596.061C505.956 595.452 502.804 594.37 498.23 594.912C502.415 596.732 508.679 600.455 512.092 605.562C513.688 607.269 518.524 610.567 524.646 610.797C528.766 610.903 531.296 610.172 532.949 609.695C533.955 609.404 534.636 609.207 535.153 609.351Z" stroke="black" stroke-width="0.25"/>
<path d="M516.765 573.715L517.834 581.236L520.24 578.644L520.252 576.325L516.765 573.715Z" fill="white"/>
<path fillRule="evenodd" clipRule="evenodd" d="M517.748 581.446L516.397 573.081L520.375 576.165L520.329 578.657L517.748 581.446ZM520.113 576.349L517.064 574.027L517.852 581.149L520.154 578.408L520.113 576.349Z" stroke="black" stroke-width="0.35"/>
<path d="M522.868 572.692C522.505 573.246 522.773 576.71 522.952 578.372C523.065 578.532 523.291 578.482 523.39 578.437C524.55 578.036 527.407 578.61 528.69 578.948C527.394 577.998 526.676 577.759 525.26 577.863C525.606 576.576 525.867 576.168 526.878 574.933C525.62 575.283 524.633 576.641 524.296 577.276C523.848 576.996 523.157 574.103 522.868 572.692Z" fill="black"/>
<path d="M517.989 593.129C518.227 593.199 518.613 593.086 518.776 593.021C518.107 593.851 517.635 593.478 517.482 593.188C517.57 593.127 517.765 592.944 517.848 592.706C517.932 592.469 518.07 592.575 518.128 592.658C518.059 592.827 518.007 593.042 517.989 593.129Z" fill="black"/>
<path d="M517.626 594.503L517.364 594.688C517.351 594.936 517.58 594.883 517.697 594.826C518.011 594.605 517.836 594.579 518.115 594.307C518.478 594.111 518.814 594.187 519.268 593.941C518.204 593.678 517.73 594.206 517.626 594.503Z" fill="black"/>
<path d="M532.924 592.734C531.818 592.322 530.843 592.86 530.494 593.181C532.113 592.585 532.593 593.043 533.38 593.158C533.446 591.695 533.305 591.05 532.271 590.362C533.196 589.561 534 589.59 535.261 590.043C533.629 588.063 532.122 587.038 530.074 586.47C532.12 587.413 533.157 588.172 533.929 589.267C532.74 589.271 531.804 590.071 531.484 590.47C532.87 590.923 533.022 592.168 532.924 592.734Z" fill="black"/>
<path d="M522.868 572.692C522.505 573.246 522.773 576.71 522.952 578.372C523.065 578.532 523.291 578.482 523.39 578.437C524.55 578.036 527.407 578.61 528.69 578.948C527.394 577.998 526.676 577.759 525.26 577.863C525.606 576.576 525.867 576.168 526.878 574.933C525.62 575.283 524.633 576.641 524.296 577.276C523.848 576.996 523.157 574.103 522.868 572.692Z" stroke="black" stroke-width="0.25"/>
<path d="M517.989 593.129C518.227 593.199 518.613 593.086 518.776 593.021C518.107 593.851 517.635 593.478 517.482 593.188C517.57 593.127 517.765 592.944 517.848 592.706C517.932 592.469 518.07 592.575 518.128 592.658C518.059 592.827 518.007 593.042 517.989 593.129Z" stroke="black" stroke-width="0.25"/>
<path d="M517.626 594.503L517.364 594.688C517.351 594.936 517.58 594.883 517.697 594.826C518.011 594.605 517.836 594.579 518.115 594.307C518.478 594.111 518.814 594.187 519.268 593.941C518.204 593.678 517.73 594.206 517.626 594.503Z" stroke="black" stroke-width="0.25"/>
<path d="M532.924 592.734C531.818 592.322 530.843 592.86 530.494 593.181C532.113 592.585 532.593 593.043 533.38 593.158C533.446 591.695 533.305 591.05 532.271 590.362C533.196 589.561 534 589.59 535.261 590.043C533.629 588.063 532.122 587.038 530.074 586.47C532.12 587.413 533.157 588.172 533.929 589.267C532.74 589.271 531.804 590.071 531.484 590.47C532.87 590.923 533.022 592.168 532.924 592.734Z" stroke="black" stroke-width="0.25"/>
<path d="M520.662 592.362C520.132 593.034 519.288 593.082 518.915 592.998C519.629 592.121 519.506 591.612 519.994 590.969C520.565 590.268 520.954 590.218 521.234 590.616C521.264 590.918 521.192 591.69 520.662 592.362Z" fill="#BF1520"/>
<path fillRule="evenodd" clipRule="evenodd" d="M348 567C340.666 554.5 326.3 528 327.5 522L324.499 529.5L324.999 490L317.499 498.5C318.499 488.667 322.799 465.6 331.999 452C333.666 449.167 334.299 443.2 323.499 442H314.999C307.499 444 289.799 448.3 278.999 449.5C277.267 449.692 275.725 449.885 274.335 450.058C264.887 451.237 262.473 451.538 255.499 445C249.099 439 243.832 428.833 241.999 424.5L256.499 415C257.832 413.333 259.499 410 255.499 410L244.999 406.5L295.499 386.5C296.332 385.167 297.999 382.2 297.999 381C297.999 379.8 300.999 379.833 302.499 380L322.999 339.5C325.499 334.167 335.599 322.1 355.999 316.5C356.799 316.5 382.999 304.833 395.999 299L440.999 246.5C447.166 263.833 459.499 306.4 459.499 338C471.832 351.333 497.699 383 502.499 403C496.666 399 483.399 391.7 476.999 394.5C484.332 408.167 497.199 443.8 489.999 477C488.832 472.833 485.899 463.4 483.499 459C476.832 482.333 452.099 536.1 406.499 564.5C422.832 559 462.999 541 492.999 513C522.999 485 531.166 451.333 531.499 438C532.999 412 536.999 357.1 540.999 345.5C542.77 340.364 544.981 331.338 547.452 321.244C551.958 302.843 557.333 280.895 562.499 272.5C548.332 277 518.099 292.4 510.499 318C511.332 295.667 509.699 245.9 496.499 225.5C493.779 221.297 491.386 217.352 489.081 213.553C477.402 194.304 467.999 178.808 429.999 152.5H428.499C436.166 160.833 449.199 184.4 439.999 212L434.999 220C431.332 194.167 410.099 130.9 354.499 84.5C370.999 124 376.999 152.5 362.999 177C348.666 191.667 319.499 229.4 317.499 263C311.332 250.667 304.699 215.6 327.499 174C287.832 187.5 212.399 240.5 227.999 344.5C224.333 335.667 209.1 313.5 177.5 295.5C196 327.5 219.2 382.1 218 432.5C220.5 451.5 236.5 496.5 274.5 527C300.293 547.199 319.712 554.265 332.397 558.88C340.122 561.691 345.35 563.594 348 567ZM233 359C219 332.2 207 323 198.5 319.5C220.932 369.891 222.452 401.68 223.51 423.801C224.079 435.702 224.514 444.805 227.999 452.5C241.302 511.7 308.876 548.5 341 559.5C332.502 543.921 331.582 541.268 328.139 531.341C327.935 530.754 327.723 530.142 327.5 529.5C327.017 528.113 324.974 539.887 324.087 545.001L324 545.5C318.8 535.349 321.167 507.937 323 495.5C320.667 499.5 315.8 507.7 314.999 508.5C310.998 491.7 323.999 463.167 331 451C331.4 443 320.167 444 314.5 445.5C278.1 453.9 263.667 453.667 261 452.5C252.6 448.9 242.833 431.667 239 423.5C236.333 420 231 412.8 231 412C231 411.2 234 408.667 235.5 407.5L294 383C293.6 381.8 294.5 379.5 295 378.5C296.599 375.7 299.499 376.167 300.5 376.5V375C305.13 365.74 308.231 358.832 310.711 353.309C315.46 342.728 317.93 337.227 324.5 330C331.601 321.547 341.674 317.667 360.751 310.319C369.884 306.801 381.079 302.489 395 296.5L443.5 232C453.9 252.8 460.333 311.667 462 338C495.2 370.4 508.5 403.5 511 416C497.888 401.2 485.203 397.833 480.5 398C500.5 437.6 495.166 474.833 489.999 488.5C489.999 484.5 485.666 470.5 483.499 464C477.5 498 440.5 541 426 554C522.8 507.6 527.5 455.5 528.5 414C527 377 543 305 553 282.5C533.4 286.9 514.333 313.5 507.5 326.5C513.5 229 476 195.5 444 170C458 199 440.667 217.333 434 224C414.4 157.2 387.5 126 376 118C386 159.5 368 183.5 364 186.5C360.8 188.9 350.333 201.5 345.5 207.5C329.5 225.1 320.166 255.5 317.499 268.5H316.5C304.1 250.1 307 208.833 310 190.5C263.098 212.1 240.458 258.5 235 279C225.8 300.6 227.999 336 233 359Z" fill="black"/>
<path d="M324 545.5C318.8 535.349 321.167 507.937 323 495.5C320.667 499.5 315.8 507.7 314.999 508.5C310.998 491.7 323.999 463.167 331 451C331.4 443 320.167 444 314.5 445.5C278.1 453.9 263.667 453.667 261 452.5C252.6 448.9 242.833 431.667 239 423.5C236.333 420 231 412.8 231 412C231 411.2 234 408.667 235.5 407.5L294 383C293.6 381.8 294.5 379.5 295 378.5C296.599 375.7 299.499 376.167 300.5 376.5V375C305.13 365.74 308.231 358.832 310.711 353.309C315.46 342.728 317.93 337.227 324.5 330C331.601 321.547 341.674 317.667 360.751 310.319C369.884 306.801 381.079 302.489 395 296.5L443.5 232C453.9 252.8 460.333 311.667 462 338C495.2 370.4 508.5 403.5 511 416C497.888 401.2 485.203 397.833 480.5 398C500.5 437.6 495.166 474.833 489.999 488.5C489.999 484.5 485.666 470.5 483.499 464C477.5 498 440.5 541 426 554C522.8 507.6 527.5 455.5 528.5 414C527 377 543 305 553 282.5C533.4 286.9 514.333 313.5 507.5 326.5C513.5 229 476 195.5 444 170C458 199 440.667 217.333 434 224C414.4 157.2 387.5 126 376 118C386 159.5 368 183.5 364 186.5C360.8 188.9 350.333 201.5 345.5 207.5C329.5 225.1 320.166 255.5 317.499 268.5H316.5C304.1 250.1 307 208.833 310 190.5C263.098 212.1 240.458 258.5 235 279C225.8 300.6 227.999 336 233 359C219 332.2 207 323 198.5 319.5C220.932 369.891 222.452 401.68 223.51 423.801C224.079 435.702 224.514 444.805 227.999 452.5C241.302 511.7 308.876 548.5 341 559.5C332.502 543.921 331.582 541.268 328.139 531.341C327.935 530.754 327.723 530.142 327.5 529.5C327.017 528.113 324.974 539.887 324.087 545.001M324 545.5L324.087 545.001M324 545.5C324.027 545.342 324.056 545.175 324.087 545.001M348 567C340.666 554.5 326.3 528 327.5 522L324.499 529.5L324.999 490L317.499 498.5C318.499 488.667 322.799 465.6 331.999 452C333.666 449.167 334.299 443.2 323.499 442H314.999C307.499 444 289.799 448.3 278.999 449.5C277.267 449.692 275.725 449.885 274.335 450.058C264.887 451.237 262.473 451.538 255.499 445C249.099 439 243.832 428.833 241.999 424.5L256.499 415C257.832 413.333 259.499 410 255.499 410L244.999 406.5L295.499 386.5C296.332 385.167 297.999 382.2 297.999 381C297.999 379.8 300.999 379.833 302.499 380L322.999 339.5C325.499 334.167 335.599 322.1 355.999 316.5C356.799 316.5 382.999 304.833 395.999 299L440.999 246.5C447.166 263.833 459.499 306.4 459.499 338C471.832 351.333 497.699 383 502.499 403C496.666 399 483.399 391.7 476.999 394.5C484.332 408.167 497.199 443.8 489.999 477C488.832 472.833 485.899 463.4 483.499 459C476.832 482.333 452.099 536.1 406.499 564.5C422.832 559 462.999 541 492.999 513C522.999 485 531.166 451.333 531.499 438C532.999 412 536.999 357.1 540.999 345.5C542.77 340.364 544.981 331.338 547.452 321.244C551.958 302.843 557.333 280.895 562.499 272.5C548.332 277 518.099 292.4 510.499 318C511.332 295.667 509.699 245.9 496.499 225.5C493.779 221.297 491.386 217.352 489.081 213.553C477.402 194.304 467.999 178.808 429.999 152.5H428.499C436.166 160.833 449.199 184.4 439.999 212L434.999 220C431.332 194.167 410.099 130.9 354.499 84.5C370.999 124 376.999 152.5 362.999 177C348.666 191.667 319.499 229.4 317.499 263C311.332 250.667 304.699 215.6 327.499 174C287.832 187.5 212.399 240.5 227.999 344.5C224.333 335.667 209.1 313.5 177.5 295.5C196 327.5 219.2 382.1 218 432.5C220.5 451.5 236.5 496.5 274.5 527C300.293 547.199 319.712 554.265 332.397 558.88C340.122 561.691 345.35 563.594 348 567Z" stroke="black" stroke-width="0.25"/>
<path d="M198.5 319.5C207 323 219 332.2 233 359C227.999 336 225.8 300.6 235 279C240.458 258.5 263.098 212.1 310 190.5C307 208.833 304.1 250.1 316.5 268.5H317.499C320.166 255.5 329.5 225.1 345.5 207.5C350.333 201.5 360.8 188.9 364 186.5C368 183.5 386 159.5 376 118C387.5 126 414.4 157.2 434 224C440.667 217.333 458 199 444 170C476 195.5 513.5 229 507.5 326.5C514.333 313.5 533.4 286.9 553 282.5C543 305 527 377 528.5 414C527.5 455.5 522.8 507.6 426 554C440.5 541 477.5 498 483.499 464C485.666 470.5 489.999 484.5 489.999 488.5C495.166 474.833 500.5 437.6 480.5 398C485.203 397.833 497.888 401.2 511 416C508.5 403.5 495.2 370.4 462 338C460.333 311.667 453.9 252.8 443.5 232L395 296.5C381.079 302.489 369.884 306.801 360.751 310.319C341.674 317.667 331.601 321.547 324.5 330C317.93 337.227 315.46 342.728 310.711 353.309C308.231 358.832 305.13 365.74 300.5 375V376.5C299.499 376.167 296.599 375.7 295 378.5C294.5 379.5 293.6 381.8 294 383L235.5 407.5C234 408.667 231 411.2 231 412C231 412.8 236.333 420 239 423.5C242.833 431.667 252.6 448.9 261 452.5C263.667 453.667 278.1 453.9 314.5 445.5C320.167 444 331.4 443 331 451C323.999 463.167 310.998 491.7 314.999 508.5C315.8 507.7 320.667 499.5 323 495.5C321.167 507.937 318.8 535.349 324 545.5L324.087 545.001C324.974 539.887 327.017 528.113 327.5 529.5C327.723 530.142 327.935 530.754 328.139 531.341C331.582 541.268 332.502 543.921 341 559.5C308.876 548.5 241.302 511.7 227.999 452.5C224.514 444.805 224.079 435.702 223.51 423.801C222.452 401.68 220.932 369.891 198.5 319.5Z" fill="#BF1520"/>
<path d="M324 545.5C318.8 535.349 321.167 507.937 323 495.5C320.667 499.5 315.8 507.7 314.999 508.5C310.998 491.7 323.999 463.167 331 451C331.4 443 320.167 444 314.5 445.5C278.1 453.9 263.667 453.667 261 452.5C252.6 448.9 242.833 431.667 239 423.5C236.333 420 231 412.8 231 412C231 411.2 234 408.667 235.5 407.5L294 383C293.6 381.8 294.5 379.5 295 378.5C296.599 375.7 299.499 376.167 300.5 376.5V375C305.13 365.74 308.231 358.832 310.711 353.309C315.46 342.728 317.93 337.227 324.5 330C331.601 321.547 341.674 317.667 360.751 310.319C369.884 306.801 381.079 302.489 395 296.5L443.5 232C453.9 252.8 460.333 311.667 462 338C495.2 370.4 508.5 403.5 511 416C497.888 401.2 485.203 397.833 480.5 398C500.5 437.6 495.166 474.833 489.999 488.5C489.999 484.5 485.666 470.5 483.499 464C477.5 498 440.5 541 426 554C522.8 507.6 527.5 455.5 528.5 414C527 377 543 305 553 282.5C533.4 286.9 514.333 313.5 507.5 326.5C513.5 229 476 195.5 444 170C458 199 440.667 217.333 434 224C414.4 157.2 387.5 126 376 118C386 159.5 368 183.5 364 186.5C360.8 188.9 350.333 201.5 345.5 207.5C329.5 225.1 320.166 255.5 317.499 268.5H316.5C304.1 250.1 307 208.833 310 190.5C263.098 212.1 240.458 258.5 235 279C225.8 300.6 227.999 336 233 359C219 332.2 207 323 198.5 319.5C220.932 369.891 222.452 401.68 223.51 423.801C224.079 435.702 224.514 444.805 227.999 452.5C241.302 511.7 308.876 548.5 341 559.5C332.502 543.921 331.582 541.268 328.139 531.341C327.935 530.754 327.723 530.142 327.5 529.5C327.017 528.113 324.974 539.887 324.087 545.001M324 545.5L324.087 545.001M324 545.5C324.027 545.342 324.056 545.175 324.087 545.001M348 567C340.666 554.5 326.3 528 327.5 522L324.499 529.5L324.999 490L317.499 498.5C318.499 488.667 322.799 465.6 331.999 452C333.666 449.167 334.299 443.2 323.499 442H314.999C307.499 444 289.799 448.3 278.999 449.5C277.267 449.692 275.725 449.885 274.335 450.058C264.887 451.237 262.473 451.538 255.499 445C249.099 439 243.832 428.833 241.999 424.5L256.499 415C257.832 413.333 259.499 410 255.499 410L244.999 406.5L295.499 386.5C296.332 385.167 297.999 382.2 297.999 381C297.999 379.8 300.999 379.833 302.499 380L322.999 339.5C325.499 334.167 335.599 322.1 355.999 316.5C356.799 316.5 382.999 304.833 395.999 299L440.999 246.5C447.166 263.833 459.499 306.4 459.499 338C471.832 351.333 497.699 383 502.499 403C496.666 399 483.399 391.7 476.999 394.5C484.332 408.167 497.199 443.8 489.999 477C488.832 472.833 485.899 463.4 483.499 459C476.832 482.333 452.099 536.1 406.499 564.5C422.832 559 462.999 541 492.999 513C522.999 485 531.166 451.333 531.499 438C532.999 412 536.999 357.1 540.999 345.5C542.77 340.364 544.981 331.338 547.452 321.244C551.958 302.843 557.333 280.895 562.499 272.5C548.332 277 518.099 292.4 510.499 318C511.332 295.667 509.699 245.9 496.499 225.5C493.779 221.297 491.386 217.352 489.081 213.553C477.402 194.304 467.999 178.808 429.999 152.5H428.499C436.166 160.833 449.199 184.4 439.999 212L434.999 220C431.332 194.167 410.099 130.9 354.499 84.5C370.999 124 376.999 152.5 362.999 177C348.666 191.667 319.499 229.4 317.499 263C311.332 250.667 304.699 215.6 327.499 174C287.832 187.5 212.399 240.5 227.999 344.5C224.333 335.667 209.1 313.5 177.5 295.5C196 327.5 219.2 382.1 218 432.5C220.5 451.5 236.5 496.5 274.5 527C300.293 547.199 319.712 554.265 332.397 558.88C340.122 561.691 345.35 563.594 348 567Z" stroke="black" stroke-width="0.25"/>
<path d="M391 241L364 296.5L391 290.5L401.5 275L391 241Z" fill="white"/>
<path fillRule="evenodd" clipRule="evenodd" d="M362.5 297.5L391.5 235L403 274.5L391.5 291L362.5 297.5ZM400.5 274.5L391.5 244.5L364.5 296L391.5 288.5L400.5 274.5Z" fill="black" stroke="black"/>
<path d="M434.5 263C429.7 265 415.833 289.5 409.5 301.5C409.5 303.1 411.166 303.833 412 304C421.2 306.8 436.833 324.167 443.5 332.5C439.5 320 436 315 426.5 309C434.5 302 438 300.5 450 297C440.4 293.4 428 297.833 423 300.5C421.4 296.5 430 273.833 434.5 263Z" fill="black"/>
<path d="M311.5 377C312.7 378.6 315.666 379.667 317 380C309 382.4 307.666 377.667 308 375C308.833 375 310.9 374.7 312.5 373.5C314.1 372.3 314.5 373.667 314.5 374.5C313.3 375.3 312 376.5 311.5 377Z" fill="black"/>
<path d="M303 384.5H300.5C299.3 386.1 301 386.833 302 387C305 387 304 386 307 385.5C310.2 385.9 312 388 316 388.5C310.4 381.7 305 383 303 384.5Z" fill="black"/>
<path d="M408.5 445C403.3 437 394.667 436 391 436.5C404 440.161 405 445.5 409.5 450C416.5 440.5 418.5 435.5 415 426C424.5 425 429.5 429 435.5 438C434 417 429 403 418.5 389.5C427.3 405.5 430.5 415.5 430.5 426.5C422.9 420.9 413.333 421.833 409.5 423C416.3 432.6 411.667 441.667 408.5 445Z" fill="black"/>
<path d="M434.5 263C429.7 265 415.833 289.5 409.5 301.5C409.5 303.1 411.166 303.833 412 304C421.2 306.8 436.833 324.167 443.5 332.5C439.5 320 436 315 426.5 309C434.5 302 438 300.5 450 297C440.4 293.4 428 297.833 423 300.5C421.4 296.5 430 273.833 434.5 263Z" stroke="black" stroke-width="0.25"/>
<path d="M311.5 377C312.7 378.6 315.666 379.667 317 380C309 382.4 307.666 377.667 308 375C308.833 375 310.9 374.7 312.5 373.5C314.1 372.3 314.5 373.667 314.5 374.5C313.3 375.3 312 376.5 311.5 377Z" stroke="black" stroke-width="0.25"/>
<path d="M303 384.5H300.5C299.3 386.1 301 386.833 302 387C305 387 304 386 307 385.5C310.2 385.9 312 388 316 388.5C310.4 381.7 305 383 303 384.5Z" stroke="black" stroke-width="0.25"/>
<path d="M408.5 445C403.3 437 394.667 436 391 436.5C404 440.161 405 445.5 409.5 450C416.5 440.5 418.5 435.5 415 426C424.5 425 429.5 429 435.5 438C434 417 429 403 418.5 389.5C427.3 405.5 430.5 415.5 430.5 426.5C422.9 420.9 413.333 421.833 409.5 423C416.3 432.6 411.667 441.667 408.5 445Z" stroke="black" stroke-width="0.25"/>
<path d="M332 384.5C325.6 386.5 320 382.833 318 380.5C326.5 378 328 374 334 372C340.8 370 343.5 371.5 343.5 375.5C342.333 377.667 338.4 382.5 332 384.5Z" fill="#BF1520"/>
<path d="M0 372C-4.27075e-06 420.852 9.62206 469.225 28.3168 514.358C47.0116 559.491 74.4129 600.5 108.956 635.044C143.5 669.587 184.509 696.988 229.642 715.683C274.775 734.378 323.148 744 372 744C420.852 744 469.225 734.378 514.358 715.683C559.491 696.988 600.5 669.587 635.044 635.044C669.587 600.5 696.988 559.491 715.683 514.358C734.378 469.225 744 420.852 744 372L662.738 372C662.738 410.18 655.218 447.987 640.607 483.261C625.996 518.535 604.58 550.585 577.583 577.583C550.585 604.58 518.535 625.996 483.261 640.607C447.987 655.218 410.18 662.738 372 662.738C333.82 662.738 296.013 655.218 260.739 640.607C225.465 625.996 193.415 604.58 166.417 577.583C139.42 550.585 118.004 518.535 103.393 483.261C88.7821 447.987 81.2619 410.18 81.2619 372H0Z" fill="black"/>
<path d="M744 372C744 273.339 704.807 178.72 635.044 108.956C565.28 39.1928 470.661 7.44866e-06 372 0C273.34 -7.44866e-06 178.72 39.1927 108.956 108.956C39.1928 178.72 1.48973e-05 273.339 0 372L81.2619 372C81.2619 294.891 111.893 220.941 166.417 166.417C220.941 111.893 294.891 81.2619 372 81.2619C449.109 81.2619 523.059 111.893 577.583 166.417C632.107 220.941 662.738 294.891 662.738 372H744Z" fill="#BF1520"/>
<path d="M95.9949 195.811C96.9948 194.156 96.4643 192.005 94.81 191.005C93.1558 190.005 91.0041 190.535 90.0042 192.189L95.9949 195.811ZM90.0042 192.189C21.3182 305.825 20.3483 432.71 92.4928 553.792L98.5063 550.208C27.6502 431.29 28.6815 307.175 95.9949 195.811L90.0042 192.189Z" fill="white"/>
<path d="M650.505 195.811C649.505 194.156 650.036 192.005 651.69 191.005C653.344 190.005 655.496 190.535 656.496 192.189L650.505 195.811ZM656.496 192.189C725.182 305.825 726.152 432.71 654.007 553.792L647.994 550.208C718.85 431.29 717.818 307.175 650.505 195.811L656.496 192.189Z" fill="white"/>
<path d="M198 545C35.5007 356 184.5 133.5 360 126L356 111.5C164.5 111.5 21.4999 386 198 545Z" fill="black"/>
<path d="M406 128L395.5 111.5C639.5 141 692 419.5 556 541.5C686 403 613 157 406 128Z" fill="black"/>
<path d="M198 545C35.5007 356 184.5 133.5 360 126L356 111.5C164.5 111.5 21.4999 386 198 545Z" stroke="black"/>
<path d="M406 128L395.5 111.5C639.5 141 692 419.5 556 541.5C686 403 613 157 406 128Z" stroke="black"/>
<path d="M81.6935 169.42L101.064 143.195L108.182 147.667L96.0554 164.084L101.354 167.412L112.603 152.183L119.403 156.454L108.154 171.683L114.726 175.812L127.203 158.919L134.753 163.662L115.032 190.361L81.6935 169.42Z" fill="white"/>
<path d="M112.2 130.361L121.878 121.092L135.977 124.303L131.808 111.581L141.389 102.404L146.803 123.534L171.663 127.745L161.791 137.2L146.727 134.17L150.562 147.955L140.748 157.355L135.219 134.333L112.2 130.361Z" fill="white"/>
<path d="M153.707 92.7879L184.277 71.979L190.352 79.5687L180.096 86.5504L198.623 109.697L188.566 116.543L170.039 93.396L159.782 100.378L153.707 92.7879Z" fill="white"/>
<path d="M200.631 63.2791L211.491 57.7371L231.748 91.4955L220.888 97.0376L200.631 63.2791Z" fill="white"/>
<path d="M230.659 48.6149L241.377 44.8482L263.681 60.0612L255.362 39.9327L266.181 36.1304L281.218 72.5155L270.4 76.3179L248.233 61.2271L256.49 81.2066L245.697 85.0001L230.659 48.6149Z" fill="white"/>
<path d="M313.519 51.4596L311.939 43.4225L330.48 40.3226L333.718 56.792C330.642 59.7922 327.821 61.9602 325.257 63.2962C322.707 64.6117 319.56 65.5823 315.816 66.2082C311.207 66.9788 307.292 66.8259 304.071 65.7495C300.868 64.6702 298.159 62.7189 295.944 59.8957C293.747 57.0696 292.255 53.6538 291.467 49.6484C290.639 45.4323 290.793 41.6233 291.929 38.2216C293.063 34.8024 295.157 32.0027 298.212 29.8226C300.598 28.1354 304.016 26.9198 308.466 26.1759C312.757 25.4585 316.038 25.3091 318.309 25.7278C320.598 26.1435 322.6 27.0517 324.316 28.4522C326.047 29.8322 327.51 31.7105 328.707 34.0869L317.536 38.0775C316.773 36.6992 315.741 35.7194 314.441 35.1384C313.159 34.5544 311.635 34.41 309.869 34.7052C307.238 35.1451 305.316 36.4099 304.104 38.4997C302.906 40.5689 302.693 43.5711 303.467 47.5062C304.289 51.6872 305.662 54.5423 307.586 56.0714C309.527 57.5976 311.911 58.1245 314.736 57.6521C316.078 57.4277 317.32 57.0205 318.463 56.4303C319.605 55.8401 320.871 54.9481 322.259 53.7542L321.545 50.1178L313.519 51.4596Z" fill="white"/>
<path d="M376.028 21.7781L388.167 21.8389L388.029 45.3102C388.015 47.6376 387.635 49.8379 386.889 51.911C386.16 53.9663 385.013 55.7689 383.446 57.3186C381.897 58.8506 380.271 59.9256 378.566 60.5437C376.198 61.4091 373.357 61.8336 370.045 61.817C368.13 61.8074 366.036 61.6626 363.764 61.3826C361.509 61.1028 359.624 60.5652 358.106 59.7698C356.589 58.9565 355.2 57.8127 353.937 56.3382C352.693 54.8639 351.842 53.3467 351.386 51.7868C350.649 49.2766 350.286 47.0547 350.297 45.1211L350.435 21.6498L362.574 21.7107L362.432 45.7459C362.42 47.8943 363.001 49.5802 364.175 50.8035C365.367 52.0091 367.02 52.6171 369.133 52.6277C371.227 52.6382 372.869 52.0556 374.058 50.8799C375.264 49.6864 375.874 47.9975 375.887 45.8133L376.028 21.7781Z" fill="white"/>
<path d="M411.164 24.0313L423.244 25.6779L417.014 64.5519L404.933 62.9053L411.164 24.0313Z" fill="white"/>
<path d="M444.633 28.9539L462.092 33.6291C465.534 34.5507 468.164 35.755 469.984 37.2422C471.82 38.734 473.159 40.5275 474 42.6228C474.84 44.7181 475.211 46.9932 475.113 49.4483C475.015 51.9033 474.563 54.4116 473.756 56.9732C472.493 60.9863 471.044 63.9778 469.412 65.9477C467.801 67.9052 465.938 69.4154 463.822 70.4782C461.711 71.5239 459.635 72.042 457.594 72.0325C454.802 72.0255 452.36 71.7418 450.267 71.1815L432.809 66.5063L444.633 28.9539ZM453.707 40.6052L447.246 61.1232L450.126 61.8943C452.581 62.5519 454.412 62.755 455.616 62.5035C456.826 62.2349 457.934 61.5133 458.942 60.3387C459.954 59.1471 460.934 57.0485 461.88 54.043C463.133 50.064 463.334 47.1642 462.482 45.3436C461.63 43.5231 459.682 42.2052 456.638 41.3901L453.707 40.6052Z" fill="white"/>
<path d="M489.585 61.9422C492.639 56.2865 496.643 52.6303 501.598 50.9735C506.554 49.3168 511.935 49.8219 517.744 52.4889C523.699 55.2231 527.45 58.8816 528.996 63.4643C530.55 68.0313 529.822 73.1033 526.811 78.6803C524.625 82.7291 522.122 85.7282 519.303 87.6777C516.509 89.619 513.386 90.7017 509.936 90.9259C506.509 91.1418 502.811 90.3384 498.841 88.5156C494.806 86.6629 491.799 84.5054 489.818 82.0431C487.855 79.5883 486.778 76.6367 486.589 73.1882C486.401 69.7397 487.399 65.991 489.585 61.9422ZM500.615 67.0657C498.727 70.5631 498.038 73.3822 498.547 75.523C499.072 77.6712 500.49 79.2757 502.8 80.3365C505.176 81.4272 507.419 81.523 509.528 80.624C511.638 79.725 513.739 77.3378 515.831 73.4622C517.592 70.2011 518.193 67.5085 517.634 65.3843C517.1 63.2519 515.67 61.6515 513.343 60.5832C511.114 59.5598 508.912 59.5021 506.737 60.4102C504.561 61.3183 502.521 63.5368 500.615 67.0657Z" fill="white"/>
<path d="M530.353 102.729L555.126 72.1298L571.826 83.6277C574.923 85.7598 577.087 87.6398 578.319 89.2677C579.55 90.8956 580.115 92.7366 580.014 94.7906C579.924 96.8308 579.09 98.8249 577.513 100.773C576.139 102.471 574.567 103.675 572.797 104.385C571.039 105.082 569.179 105.351 567.218 105.192C565.968 105.091 564.469 104.687 562.721 103.982C563.611 105.18 564.177 106.154 564.418 106.906C564.584 107.41 564.681 108.311 564.71 109.609C564.753 110.918 564.712 111.876 564.588 112.484L562.25 124.69L550.925 116.892L553.142 103.856C553.444 102.178 553.476 100.976 553.238 100.248C552.898 99.2779 552.271 98.4778 551.357 97.8484L550.472 97.2392L540.418 109.659L530.353 102.729ZM555.153 91.4575L559.378 94.3662C559.835 94.6809 560.833 95.151 562.37 95.7762C563.135 96.1079 563.933 96.1584 564.762 95.9278C565.607 95.7074 566.299 95.2632 566.84 94.5953C567.64 93.6073 567.922 92.6205 567.687 91.6348C567.451 90.6492 566.419 89.5269 564.591 88.2679L560.189 85.2374L555.153 91.4575Z" fill="white"/>
<path d="M600.767 105.294L624.189 127.973L617.874 133.52L603.211 119.322L598.509 123.452L612.111 136.622L606.078 141.921L592.476 128.75L586.645 133.872L601.732 148.481L595.033 154.364L571.186 131.274L600.767 105.294Z" fill="white"/>
<path d="M614.089 155.127L621.58 164.051C620.137 165.253 619.227 166.425 618.851 167.568C618.246 169.424 618.635 171.288 620.018 173.16C621.05 174.557 622.183 175.415 623.419 175.735C624.68 176.061 625.765 175.938 626.675 175.366C627.539 174.823 628.046 173.978 628.197 172.829C628.347 171.68 627.757 169.605 626.428 166.603C624.274 161.674 623.363 157.766 623.695 154.88C624.016 151.979 625.48 149.71 628.088 148.072C629.801 146.996 631.761 146.45 633.969 146.434C636.202 146.422 638.448 147.088 640.705 148.432C642.989 149.781 645.348 152.104 647.784 155.402C650.773 159.448 652.254 163.03 652.226 166.147C652.223 169.269 650.643 172.117 647.484 174.692L640.102 165.825C641.422 164.637 642.131 163.433 642.228 162.213C642.336 161.006 641.879 159.712 640.858 158.329C640.018 157.192 639.127 156.497 638.186 156.245C637.26 155.983 636.434 156.08 635.706 156.538C635.175 156.871 634.873 157.409 634.8 158.15C634.7 158.887 635.1 160.239 635.997 162.205C638.186 167.092 639.461 170.771 639.822 173.243C640.209 175.72 639.975 177.838 639.122 179.597C638.279 181.37 636.947 182.828 635.128 183.971C632.99 185.314 630.605 185.99 627.971 186C625.337 186.01 622.806 185.302 620.376 183.876C617.962 182.441 615.622 180.19 613.357 177.123C609.378 171.737 607.715 167.321 608.366 163.876C609.018 160.431 610.925 157.514 614.089 155.127Z" fill="white"/>
</svg>
