<svg width="2048" height="2036" viewBox="0 0 2048 2036" fill="none" xmlns="http://www.w3.org/2000/svg">
<rect width="2048" height="2036" rx="194" fill="url(#paint0_linear_121_113)"/>
<path d="M495.5 1038L298 1742L1048 1544.5L495.5 1038Z" fill="white"/>
<ellipse cx="1033" cy="997.5" rx="717" ry="715.5" fill="white"/>
<path d="M910 1449L478 1566.5L569.5 1220L910 1449Z" fill="url(#paint1_linear_121_113)"/>
<ellipse cx="1033" cy="997.5" rx="601" ry="599.5" fill="url(#paint2_linear_121_113)"/>
<path d="M1369 1273.5C1161 1435.5 716.5 1050 694 819.5C694 679 765.667 641.5 790 634H853L875.5 646.5L943 819.5C943 833 893.5 887 882 912.5C935.5 1027 1067.5 1124 1147 1146C1147 1146 1167.5 1140.5 1172.5 1134C1177.5 1127.5 1242.5 1050 1242.5 1050C1305.95 1068.72 1306.62 1074.33 1337.5 1088.5C1374.35 1105.97 1397.26 1112.54 1427.5 1139.5C1445.1 1203.9 1395.83 1255.67 1369 1273.5Z" fill="white"/>
<defs>
<linearGradient id="paint0_linear_121_113" x1="125" y1="1958" x2="1952" y2="114.5" gradientUnits="userSpaceOnUse">
<stop stop-color="#28D146"/>
<stop offset="1" stop-color="#5FFB7B"/>
</linearGradient>
<linearGradient id="paint1_linear_121_113" x1="694" y1="1220" x2="694" y2="1566.5" gradientUnits="userSpaceOnUse">
<stop stop-color="#28D146"/>
<stop offset="1" stop-color="#5FFB7B"/>
</linearGradient>
<linearGradient id="paint2_linear_121_113" x1="1033" y1="398" x2="1033" y2="1597" gradientUnits="userSpaceOnUse">
<stop stop-color="#28D146"/>
<stop offset="1" stop-color="#5FFB7B"/>
</linearGradient>
</defs>
</svg>
